<?xml version="1.0" encoding="UTF-8"?>
<svg width="800px" height="1000px" viewBox="0 0 800 1000" version="1.1" xmlns="http://www.w3.org/2000/svg" xmlns:xlink="http://www.w3.org/1999/xlink">
    <!-- Generator: Sketch 51.1 (57501) - http://www.bohemiancoding.com/sketch -->
    <title>facebook_DL</title>
    <desc>Created with Sketch.</desc>
    <defs></defs>
    <g id="facebook_DL" stroke="none" stroke-width="1" fill="none" fill-rule="evenodd">
        <g id="logo-footer" transform="translate(441.000000, 706.000000)">
            <g>
                <path d="M110.812545,8.25651402 C110.904572,8.56348079 110.810146,8.81874549 110.573746,9.09365441 C110.548096,9.12348237 110.524607,9.14951827 110.482164,9.19539003 C110.410296,9.27306357 110.388406,9.29969141 110.394575,9.28699974 C110.158488,9.77253772 109.949286,10.3963755 109.78094,11.1092981 C109.323962,13.0450464 110.241419,14.6677006 112.137009,15.2172501 C114.194676,15.8138908 116.608374,14.6870388 117.500673,12.7424366 C118.556971,10.4412591 118.361229,8.87677042 116.832238,7.67717368 C114.960938,6.20902274 112.357851,6.27012948 111.072216,7.83985899 L110.795491,8.1777337 C110.794947,8.20051389 110.804056,8.228204 110.812545,8.25651402 Z M110.106083,6.26944954 C110.423589,5.88663707 110.955421,5.49967933 111.419965,5.30848582 C112.37958,4.91358991 113.68037,4.90617957 115.133698,5.23840657 C117.932917,5.87841333 120.108577,8.22064492 119.995807,10.6570534 C119.760531,15.7499925 113.426094,19.0246323 109.732148,15.5763745 C107.943744,13.9068501 107.553768,11.8021869 108.499361,9.2850154 C108.62423,8.95356867 108.851111,8.49010331 109.049811,8.18524994 C109.270059,7.84733807 109.481086,7.64146186 109.750777,7.55562368 C109.778602,7.54676715 109.806094,7.5393618 109.833231,7.53336632 C109.647627,7.16965375 109.747904,6.70130236 110.106083,6.26944954 Z" id="Fill-4" fill="#000000" fill-rule="nonzero"></path>
                <path d="M116,2.36382675 C116.035222,2.23410526 116.077249,2.03952302 116.14169,1.8509661 C116.280178,1.44230796 116.378641,1.03435869 116.377039,0.600890425 C116.376639,0.410561355 116.256963,0.110004457 116.623996,0.0412449782 C116.938196,-0.017590452 117.272408,-0.0501980398 117.512961,0.20711836 C117.655051,0.358460099 117.796741,0.518308165 117.8896,0.694814455 C118.216208,1.3175485 117.776729,2.53572545 117.114308,2.89086461 C116.612389,3.15987721 116.012808,2.911776 116,2.36382675" id="Fill-103" fill="#000000" fill-rule="nonzero"></path>
                <path d="M113.597281,1.30015424 C113.547641,1.6054057 113.484683,1.90995301 113.451993,2.21696486 C113.409214,2.61727733 113.068594,2.79366831 112.724342,2.93802021 C112.426905,3.06335991 112.146418,3.01090032 112.073774,2.6669203 C111.908307,1.88389925 112.059649,1.1040469 112.154086,0.329475719 C112.197269,-0.0278832593 112.773982,-0.106396611 113.167067,0.152380579 C113.512933,0.380527 113.619074,0.676272361 113.597281,1.30015424" id="Fill-107" fill="#000000" fill-rule="nonzero"></path>
                <path d="M112.19066,11.6823452 C110.632914,12.6206952 108.591708,13.9682577 107.051494,14.9237702 C106.603919,15.2015633 106.260092,15.3386205 105.847581,15.6483439 C105.453117,15.9444969 105.00264,16.1407116 104.673147,15.8744932 C104.334372,15.6006913 103.968388,15.4738054 104.253536,15.0032335 C104.507231,14.584149 104.804932,14.5525935 105.343775,14.3418539 C106.408054,13.9255633 108.032176,12.8044553 108.976827,12.2352987 C109.267132,12.0600815 109.780582,11.6912496 110.031699,11.4841022 C110.690685,10.9400907 110.546085,10.7856194 109.803565,10.2635599 C108.494872,9.34277154 106.87805,8.31351987 105.559045,7.40151231 C105.221301,7.16842154 104.87376,6.94291422 104.554064,6.69585398 C103.681603,6.022525 103.837029,5.29651112 105.037953,5.02270928 C105.314335,4.95964705 105.519044,5.02949445 105.664454,5.21269422 C106.875175,6.74015718 109.059218,7.93310366 110.770108,9.0590438 C111.354328,9.44340412 111.803432,9.85804585 112.62433,10.0292717 C113.067264,10.1214703 112.94712,10.4970498 112.994043,10.9392837 C113.057467,11.2214672 112.602656,11.4340876 112.19066,11.6823452 Z" id="chevron" fill="#000000" fill-rule="nonzero" transform="translate(108.500000, 10.500000) rotate(-2.000000) translate(-108.500000, -10.500000) "></path>
                <path d="M4.80555555,7.71270718 L2.78703703,7.71270718 L2.78703703,12.9005525 L2.01851852,12.9005525 L2.01851852,7.71270718 L0,7.71270718 L0,7.09944751 L4.80555555,7.09944751 L4.80555555,7.71270718 Z M9.97657951,10.2403315 L6.8654684,10.2403315 L6.8654684,12.9005525 L6.09694989,12.9005525 L6.09694989,7.09944751 L6.8654684,7.09944751 L6.8654684,9.62707182 L9.97657951,9.62707182 L9.97657951,7.09944751 L10.745098,7.09944751 L10.745098,12.9005525 L9.97657951,12.9005525 L9.97657951,10.2403315 Z M12.6568627,7.09944751 L16.1846405,7.09944751 L16.1846405,7.71270718 L13.4253813,7.71270718 L13.4253813,9.61049724 L15.953159,9.61049724 L15.953159,10.2237569 L13.4253813,10.2237569 L13.4253813,12.2872928 L16.2309368,12.2872928 L16.2309368,12.9005525 L12.6568627,12.9005525 L12.6568627,7.09944751 Z M20.7674291,7.09944751 C20.8847137,7.08287284 21.0158852,7.07044203 21.1609477,7.0621547 C21.3060102,7.05386736 21.4572432,7.04834254 21.6146514,7.04558011 C21.7720596,7.04281768 21.926379,7.04005525 22.0776143,7.03729282 C22.2288497,7.03453039 22.3692805,7.03314917 22.4989106,7.03314917 C23.0174317,7.03314917 23.4665011,7.10497164 23.8461328,7.24861878 C24.2257645,7.39226593 24.539033,7.59254015 24.7859476,7.84944751 C25.0328623,8.10635488 25.2165027,8.41436285 25.3368736,8.77348066 C25.4572445,9.13259848 25.5174291,9.52762215 25.5174291,9.95856354 C25.5174291,10.3508307 25.4603309,10.7278988 25.3461328,11.089779 C25.2319348,11.4516593 25.0513808,11.7720981 24.8044662,12.051105 C24.5575516,12.3301119 24.236567,12.5538666 23.8415032,12.7223757 C23.4464394,12.8908848 22.9680495,12.9751381 22.406318,12.9751381 C22.3075521,12.9751381 22.179467,12.9737569 22.0220588,12.9709945 C21.8646506,12.968232 21.7026152,12.9627072 21.5359477,12.9544199 C21.3692802,12.9461326 21.2149607,12.9392266 21.0729847,12.9337017 C20.9310087,12.9281767 20.8291578,12.9198895 20.7674291,12.9088398 L20.7674291,7.09944751 Z M22.5174291,7.64640884 L22.2535402,7.64640884 C22.1578608,7.64640884 22.0637259,7.64917122 21.9711328,7.65469613 C21.8785398,7.66022104 21.7936641,7.66574581 21.7165032,7.67127072 C21.6393424,7.67679563 21.5791578,7.6823204 21.5359477,7.6878453 L21.5359477,12.3287293 C21.566812,12.3342542 21.6254534,12.3383978 21.7118736,12.3411602 C21.7982938,12.3439227 21.887799,12.3466851 21.9803921,12.3494475 C22.0729851,12.3522099 22.1624904,12.3549724 22.2489106,12.3577348 C22.3353309,12.3604972 22.3939723,12.3618785 22.4248365,12.3618785 C22.8569374,12.3618785 23.2195881,12.2955808 23.5127995,12.1629834 C23.8060109,12.0303861 24.0405762,11.852211 24.2165032,11.628453 C24.3924302,11.404695 24.5174286,11.1477915 24.5915032,10.8577348 C24.6655778,10.5676781 24.7026143,10.2679574 24.7026143,9.95856354 C24.7026143,9.68784397 24.6686642,9.41574724 24.6007625,9.14226519 C24.5328607,8.86878315 24.4155783,8.62154807 24.2489106,8.40055249 C24.0822429,8.17955691 23.8584801,7.99861948 23.5776143,7.85773481 C23.2967486,7.71685014 22.9433571,7.64640884 22.5174291,7.64640884 Z M26.892157,10 C26.892157,9.03314434 27.1205495,8.29143904 27.5773422,7.77486188 C28.0341344,7.25828471 28.6853622,7 29.5310459,7 C29.9878381,7 30.3828957,7.07182247 30.7162311,7.21546961 C31.0495659,7.35911676 31.3257979,7.56215336 31.5449348,7.82458564 C31.7640716,8.08701791 31.9261071,8.40193186 32.0310459,8.76933702 C32.1359847,9.13674217 32.1884533,9.54695907 32.1884533,10 C32.1884533,10.9668557 31.9585171,11.708561 31.4986385,12.2251381 C31.0387594,12.7417153 30.3829019,13 29.5310459,13 C29.080426,13 28.6899981,12.9281775 28.3597496,12.7845304 C28.0295006,12.6408832 27.7548124,12.4378466 27.5356755,12.1754144 C27.3165387,11.9129821 27.1545032,11.5980681 27.0495644,11.230663 C26.9446256,10.8632578 26.892157,10.4530409 26.892157,10 Z M27.7069718,10 C27.7069718,10.3204436 27.7424651,10.624308 27.8134533,10.9116022 C27.884441,11.1988965 27.9940078,11.4516564 28.142157,11.6698895 C28.2903057,11.8881227 28.4801184,12.0621541 28.7116014,12.191989 C28.943084,12.3218238 29.2162295,12.3867403 29.5310459,12.3867403 C30.1051225,12.3867403 30.5557352,12.1919909 30.8828977,11.8024862 C31.2100598,11.4129815 31.3736385,10.8121587 31.3736385,10 C31.3736385,9.68508131 31.3381447,9.38259816 31.267157,9.09254144 C31.1961688,8.80248476 31.0850587,8.54834365 30.9338237,8.3301105 C30.7825881,8.11187735 30.5912321,7.93784595 30.3597496,7.80801105 C30.1282666,7.67817615 29.8520351,7.61325967 29.5310459,7.61325967 C28.9631416,7.61325967 28.5171585,7.80800912 28.1930829,8.19751381 C27.8690068,8.58701851 27.7069718,9.18784125 27.7069718,10 Z M33.5631807,10 C33.5631807,9.03314434 33.7915737,8.29143904 34.2483658,7.77486188 C34.7051585,7.25828471 35.3563864,7 36.2020695,7 C36.6588622,7 37.0539198,7.07182247 37.3872547,7.21546961 C37.7205896,7.35911676 37.9968216,7.56215336 38.2159584,7.82458564 C38.4350953,8.08701791 38.5971308,8.40193186 38.7020695,8.76933702 C38.8070083,9.13674217 38.8594769,9.54695907 38.8594769,10 C38.8594769,10.9668557 38.6295412,11.708561 38.1696621,12.2251381 C37.7097835,12.7417153 37.053926,13 36.2020695,13 C35.7514502,13 35.3610217,12.9281775 35.0307732,12.7845304 C34.7005248,12.6408832 34.425836,12.4378466 34.2066992,12.1754144 C33.9875623,11.9129821 33.8255268,11.5980681 33.7205881,11.230663 C33.6156493,10.8632578 33.5631807,10.4530409 33.5631807,10 Z M34.3779955,10 C34.3779955,10.3204436 34.4134893,10.624308 34.484477,10.9116022 C34.5554651,11.1988965 34.665032,11.4516564 34.8131807,11.6698895 C34.9613298,11.8881227 35.1511426,12.0621541 35.3826251,12.191989 C35.6141076,12.3218238 35.8872532,12.3867403 36.2020695,12.3867403 C36.7761467,12.3867403 37.2267594,12.1919909 37.5539214,11.8024862 C37.8810834,11.4129815 38.0446621,10.8121587 38.0446621,10 C38.0446621,9.68508131 38.0091688,9.38259816 37.9381806,9.09254144 C37.867193,8.80248476 37.7560829,8.54834365 37.6048473,8.3301105 C37.4536122,8.11187735 37.2622558,7.93784595 37.0307732,7.80801105 C36.7992907,7.67817615 36.5230587,7.61325967 36.2020695,7.61325967 C35.6341657,7.61325967 35.1881822,7.80800912 34.8641066,8.19751381 C34.540031,8.58701851 34.3779955,9.18784125 34.3779955,10 Z M40.5027233,7.09944751 C40.6200078,7.08287284 40.7511791,7.07044203 40.8962419,7.0621547 C41.0413041,7.05386736 41.1925371,7.04834254 41.3499456,7.04558011 C41.5073535,7.04281768 41.6616729,7.04005525 41.8129085,7.03729282 C41.9641436,7.03453039 42.1045747,7.03314917 42.2342048,7.03314917 C42.7527259,7.03314917 43.2017954,7.10497164 43.581427,7.24861878 C43.9610587,7.39226593 44.2743267,7.59254015 44.5212419,7.84944751 C44.7681565,8.10635488 44.9517969,8.41436285 45.0721678,8.77348066 C45.1925387,9.13259848 45.2527233,9.52762215 45.2527233,9.95856354 C45.2527233,10.3508307 45.1956251,10.7278988 45.081427,11.089779 C44.967229,11.4516593 44.786675,11.7720981 44.5397604,12.051105 C44.2928452,12.3301119 43.9718612,12.5538666 43.5767974,12.7223757 C43.1817336,12.8908848 42.7033432,12.9751381 42.1416122,12.9751381 C42.0428463,12.9751381 41.9147609,12.9737569 41.757353,12.9709945 C41.5999445,12.968232 41.437909,12.9627072 41.2712419,12.9544199 C41.1045742,12.9461326 40.9502547,12.9392266 40.8082789,12.9337017 C40.6663026,12.9281767 40.5644517,12.9198895 40.5027233,12.9088398 L40.5027233,7.09944751 Z M42.2527233,7.64640884 L41.9888344,7.64640884 C41.8931549,7.64640884 41.7990201,7.64917122 41.706427,7.65469613 C41.6138339,7.66022104 41.5289584,7.66574581 41.4517974,7.67127072 C41.3746364,7.67679563 41.3144517,7.6823204 41.2712419,7.6878453 L41.2712419,12.3287293 C41.3021061,12.3342542 41.3607475,12.3383978 41.4471678,12.3411602 C41.533588,12.3439227 41.6230932,12.3466851 41.7156863,12.3494475 C41.8082794,12.3522099 41.8977846,12.3549724 41.9842048,12.3577348 C42.0706251,12.3604972 42.1292665,12.3618785 42.1601307,12.3618785 C42.5922316,12.3618785 42.9548823,12.2955808 43.2480937,12.1629834 C43.5413051,12.0303861 43.7758705,11.852211 43.9517974,11.628453 C44.1277244,11.404695 44.2527228,11.1477915 44.3267974,10.8577348 C44.400872,10.5676781 44.4379085,10.2679574 44.4379085,9.95856354 C44.4379085,9.68784397 44.4039584,9.41574724 44.3360567,9.14226519 C44.2681549,8.86878315 44.150872,8.62154807 43.9842048,8.40055249 C43.8175371,8.17955691 43.5937743,7.99861948 43.3129085,7.85773481 C43.0320428,7.71685014 42.6786513,7.64640884 42.2527233,7.64640884 Z M50.7293025,12.9005525 L46.8959692,12.9005525 L46.8959692,7.09944751 L47.6644877,7.09944751 L47.6644877,12.2872928 L50.7293025,12.2872928 L50.7293025,12.9005525 Z M52.0206971,7.09944751 L55.5484749,7.09944751 L55.5484749,7.71270718 L52.7892156,7.71270718 L52.7892156,9.61049724 L55.3169934,9.61049724 L55.3169934,10.2237569 L52.7892156,10.2237569 L52.7892156,12.2872928 L55.5947712,12.2872928 L55.5947712,12.9005525 L52.0206971,12.9005525 L52.0206971,7.09944751 Z M63.9645968,12.9005525 L60.1312634,12.9005525 L60.1312634,7.09944751 L60.8997819,7.09944751 L60.8997819,12.2872928 L63.9645968,12.2872928 L63.9645968,12.9005525 Z M65.4319172,7.09944751 L66.2004357,7.09944751 L66.2004357,12.9005525 L65.4319172,12.9005525 L65.4319172,7.09944751 Z M72.1955335,8.42541436 C72.1955335,8.5635366 72.1708426,8.70441915 72.1214594,8.8480663 C72.0720767,8.99171344 71.9980031,9.12569001 71.8992372,9.25 C71.8004712,9.37431004 71.6739296,9.48342495 71.5196075,9.57734807 C71.365286,9.67127118 71.1831888,9.74309369 70.9733113,9.79281768 L70.9733113,9.82596685 C71.1584975,9.8535913 71.3359651,9.90055216 71.5057187,9.96685083 C71.6754728,10.0331495 71.8251626,10.1243088 71.9547927,10.2403315 C72.0844234,10.3563542 72.1893606,10.4972367 72.2696075,10.6629834 C72.349855,10.8287301 72.3899779,11.0248607 72.3899779,11.2513812 C72.3899779,11.5497252 72.3205345,11.8080099 72.1816446,12.0262431 C72.0427552,12.2444762 71.8606585,12.4226512 71.6353483,12.5607735 C71.4100386,12.6988957 71.1523251,12.8011047 70.8622001,12.8674033 C70.5720757,12.933702 70.2757819,12.9668508 69.9733113,12.9668508 L69.6029409,12.9668508 C69.4609651,12.9668508 69.3128185,12.9627072 69.1584964,12.9544199 C69.0041749,12.9461326 68.8498555,12.935083 68.6955335,12.9212707 C68.541212,12.9074585 68.4054111,12.8867405 68.2881261,12.859116 L68.2881261,7.14917127 C68.5165227,7.11602192 68.7819517,7.08839788 69.0844224,7.06629834 C69.386893,7.0441988 69.7171369,7.03314917 70.0751631,7.03314917 C70.3159054,7.03314917 70.5612732,7.05110479 70.8112742,7.08701657 C71.0612758,7.12292836 71.288125,7.19198844 71.4918298,7.2941989 C71.6955345,7.39640935 71.8637428,7.53867311 71.9964594,7.72099448 C72.1291765,7.90331584 72.1955335,8.13812012 72.1955335,8.42541436 Z M70.0473853,12.3701657 C70.2449172,12.3701657 70.4362737,12.3494477 70.6214594,12.308011 C70.8066456,12.2665744 70.9702243,12.2002767 71.1122001,12.109116 C71.2541765,12.0179553 71.3668298,11.906078 71.4501631,11.7734807 C71.533497,11.6408833 71.5751631,11.4834263 71.5751631,11.301105 C71.5751631,11.0745845 71.5242377,10.8922659 71.4223853,10.7541436 C71.320533,10.6160214 71.1878185,10.5082877 71.0242372,10.4309392 C70.8606564,10.3535908 70.677016,10.3011051 70.4733113,10.2734807 C70.2696065,10.2458562 70.0659049,10.2320442 69.8622001,10.2320442 L69.0566446,10.2320442 L69.0566446,12.3121547 C69.099855,12.3232045 69.1615829,12.3314917 69.2418298,12.3370166 C69.3220772,12.3425415 69.4084964,12.3480663 69.501089,12.3535912 C69.5936821,12.3591161 69.6893601,12.3632597 69.7881261,12.3660221 C69.886892,12.3687845 69.9733113,12.3701657 70.0473853,12.3701657 Z M69.5381261,9.6519337 C69.6430649,9.6519337 69.769607,9.64917132 69.9177557,9.64364641 C70.0659049,9.6381215 70.1893601,9.6298343 70.2881261,9.61878453 C70.4362752,9.57458541 70.5751626,9.52071855 70.7047927,9.45718232 C70.8344234,9.39364609 70.9501626,9.31906119 71.052015,9.23342541 C71.1538673,9.14778964 71.2341137,9.04834309 71.2927557,8.93508287 C71.3513982,8.82182265 71.3807187,8.69889567 71.3807187,8.56629834 C71.3807187,8.38397698 71.3421389,8.23342601 71.2649779,8.11464088 C71.1878174,7.99585576 71.0844234,7.90055285 70.9547927,7.82872928 C70.8251626,7.75690571 70.677016,7.70580124 70.5103483,7.67541436 C70.3436811,7.64502749 70.1739296,7.62983425 70.001089,7.62983425 C69.7973843,7.62983425 69.610658,7.63397785 69.4409038,7.64226519 C69.2711502,7.65055253 69.1430649,7.66298333 69.0566446,7.67955801 L69.0566446,9.6519337 L69.5381261,9.6519337 Z M74.0332243,7.15745856 C74.2677932,7.11878435 74.5378524,7.08839788 74.8434095,7.06629834 C75.1489666,7.0441988 75.428285,7.03314917 75.6813725,7.03314917 C75.9653246,7.03314917 76.2353838,7.0607732 76.4915576,7.1160221 C76.747732,7.17127099 76.9730381,7.26243029 77.1674836,7.38950276 C77.361929,7.51657523 77.5177917,7.68231943 77.6350762,7.88674033 C77.7523606,8.09116123 77.8110021,8.33977753 77.8110021,8.63259669 C77.8110021,9.08563762 77.6721147,9.45303725 77.3943354,9.73480663 C77.1165561,10.016576 76.7647078,10.2044194 76.3387799,10.2983425 L76.7832243,10.6049724 L78.3943354,12.9005525 L77.4961873,12.9005525 L75.7091502,10.3977901 L74.8017428,10.2734807 L74.8017428,12.9005525 L74.0332243,12.9005525 L74.0332243,7.15745856 Z M75.699891,7.62983425 L75.449891,7.62983425 C75.3634707,7.62983425 75.2801384,7.63259664 75.199891,7.63812155 C75.1196436,7.64364645 75.0440273,7.64917122 74.9730391,7.65469613 C74.902051,7.66022104 74.8449527,7.66850824 74.8017428,7.67955801 L74.8017428,9.81767956 L75.5239651,9.81767956 C75.949893,9.81767956 76.3017413,9.72375783 76.5795206,9.5359116 C76.8572999,9.34806538 76.9961873,9.0552506 76.9961873,8.65745856 C76.9961873,8.35911455 76.8819908,8.11326064 76.6535947,7.9198895 C76.4251986,7.72651837 76.1073004,7.62983425 75.699891,7.62983425 Z M82.722767,11.2928177 L80.3338781,11.2928177 L79.68573,12.9005525 L78.9264707,12.9005525 L81.3801744,7.00828729 L81.7320263,7.00828729 L84.1949892,12.9005525 L83.3894337,12.9005525 L82.722767,11.2928177 Z M80.5838781,10.6961326 L82.4912855,10.6961326 L81.7690633,8.93093923 L81.5375818,8.05248619 L81.5283226,8.05248619 L81.2968411,8.94751381 L80.5838781,10.6961326 Z M85.3937907,7.15745856 C85.6283596,7.11878435 85.8984187,7.08839788 86.2039758,7.06629834 C86.5095329,7.0441988 86.7888514,7.03314917 87.0419388,7.03314917 C87.325891,7.03314917 87.5959501,7.0607732 87.852124,7.1160221 C88.1082984,7.17127099 88.3336044,7.26243029 88.5280499,7.38950276 C88.7224954,7.51657523 88.878358,7.68231943 88.9956425,7.88674033 C89.112927,8.09116123 89.1715684,8.33977753 89.1715684,8.63259669 C89.1715684,9.08563762 89.0326811,9.45303725 88.7549018,9.73480663 C88.477123,10.016576 88.1252742,10.2044194 87.6993462,10.2983425 L88.1437906,10.6049724 L89.7549018,12.9005525 L88.8567536,12.9005525 L87.0697166,10.3977901 L86.1623092,10.2734807 L86.1623092,12.9005525 L85.3937907,12.9005525 L85.3937907,7.15745856 Z M87.0604573,7.62983425 L86.8104573,7.62983425 C86.7240371,7.62983425 86.6407047,7.63259664 86.5604573,7.63812155 C86.4802099,7.64364645 86.4045936,7.64917122 86.3336055,7.65469613 C86.2626178,7.66022104 86.2055196,7.66850824 86.1623092,7.67955801 L86.1623092,9.81767956 L86.8845314,9.81767956 C87.3104594,9.81767956 87.6623081,9.72375783 87.9400869,9.5359116 C88.2178663,9.34806538 88.3567536,9.0552506 88.3567536,8.65745856 C88.3567536,8.35911455 88.2425571,8.11326064 88.014161,7.9198895 C87.7857649,7.72651837 87.4678668,7.62983425 87.0604573,7.62983425 Z M92.1111111,10.5966851 L89.9722222,7.09944751 L90.8703704,7.09944751 L92.3888889,9.63535912 L92.5462963,10.140884 L92.5555556,10.140884 L92.7222222,9.61878453 L94.1759259,7.09944751 L95,7.09944751 L92.8796296,10.5883978 L92.8796296,12.9005525 L92.1111111,12.9005525 L92.1111111,10.5966851 Z" id="the-Doodle-Library" fill="#666666" fill-rule="nonzero" opacity="0.595278533"></path>
            </g>
        </g>
        <g id="facebook" transform="translate(251.000000, 281.000000)" fill="#2C2C2C">
            <path d="M237.3184,55.1034 C236.9174,55.6684 236.6014,56.2854 236.3714,56.9314 C236.3694,56.9294 236.3674,56.9264 236.3654,56.9234 C235.7954,58.2594 235.7524,59.9314 235.5994,61.3804 C235.5094,62.2514 235.4234,63.1194 235.3454,63.9864 C235.2014,65.6424 235.1114,67.2984 235.0334,68.9584 C234.8774,72.2404 234.7484,75.5254 234.7094,78.8104 C234.6664,82.6734 234.8884,86.5214 235.1114,90.3764 C235.1974,91.8654 235.3104,93.3414 235.6154,94.8024 C235.8414,95.8964 236.2014,97.0604 236.5994,98.0644 C236.7364,98.4004 236.9434,98.6974 237.0954,99.0254 C238.6234,102.3334 242.3264,104.2404 245.9084,103.5834 C249.4474,102.9394 252.3064,99.8734 252.5484,96.2444 C252.6444,94.7734 252.4044,93.3354 252.2524,91.8864 C252.1194,87.0084 252.3514,82.1284 252.2634,77.2514 C252.2094,74.2514 252.1544,71.2514 252.0604,68.2514 C251.9944,66.1304 251.9274,64.0054 251.7984,61.8844 C251.7524,61.0914 251.7164,60.3024 251.6234,59.5134 C251.4984,58.4434 251.0884,57.4394 250.7094,56.4394 C249.9354,54.4044 248.0524,53.1934 246.1814,52.3494 C245.3834,51.9894 244.5294,51.8244 243.6684,51.8244 C241.2094,51.8244 238.6984,53.1654 237.3184,55.1034" id="Fill-21"></path>
            <path d="M236.5088,143.1454 C236.1798,146.6344 235.3038,150.0834 234.5448,153.5014 C234.6618,152.9684 234.7778,152.4344 234.8958,151.8994 C233.5518,157.9184 232.2938,163.9464 231.1648,170.0124 C230.6538,172.7624 230.0988,175.5044 229.6138,178.2584 C229.3318,179.8534 229.1858,181.4694 228.9718,183.0734 C228.4578,184.3974 228.2908,185.8624 228.5788,187.3324 C228.5908,187.3984 228.6068,187.4654 228.6178,187.5354 C229.3288,191.1604 232.2628,193.7424 235.9148,194.1374 C235.9468,194.1414 235.9778,194.1454 236.0088,194.1454 C238.6068,194.4264 241.8998,193.0904 243.2628,190.7624 C243.9778,189.5434 244.4818,188.5624 244.7858,187.2664 C244.9698,186.4844 245.1648,185.7074 245.3528,184.9304 C245.9148,182.6134 246.4228,180.2814 246.9148,177.9504 C247.7358,174.0824 248.5088,170.2114 249.1688,166.3134 C250.3998,159.0554 251.8608,151.7664 252.4738,144.4264 C252.8368,140.0794 249.4698,136.1534 245.1298,135.8014 C244.9178,135.7844 244.7068,135.7764 244.4978,135.7764 C240.3808,135.7754 236.8958,139.0114 236.5088,143.1454" id="Fill-23"></path>
            <path d="M116.7051,137.5155 C112.7481,139.3595 111.2481,143.9925 112.9201,147.9105 C113.0601,148.2395 113.1971,148.5685 113.3291,148.9005 C113.4621,149.5905 113.5401,150.2815 113.5941,150.9775 C113.6161,156.3775 113.4821,161.7765 113.4751,167.1795 C113.4671,170.0785 113.4591,172.9805 113.5571,175.8825 C113.6701,179.4055 113.6501,183.4255 115.1851,186.6795 C116.6971,189.8825 120.2401,191.7415 123.7361,191.1005 C125.7481,190.7375 127.5681,189.5815 128.7521,187.9175 C130.0251,186.1205 130.3571,184.0775 130.0801,181.9365 C130.0031,181.3255 129.9331,180.7105 129.8771,180.0945 C129.8441,177.6655 129.9171,175.2385 129.9941,172.8125 C130.0881,169.7855 130.0181,166.7575 129.9281,163.7345 C129.8461,160.7695 129.7681,157.8045 129.6621,154.8395 C129.5921,152.8315 129.4981,150.8205 129.2711,148.8245 C128.9751,146.1875 128.1501,143.7305 127.1001,141.2965 C125.8711,138.4475 122.9261,136.8065 119.9561,136.8065 C118.8461,136.8065 117.7331,137.0355 116.7051,137.5155" id="Fill-25"></path>
            <path d="M154.2305,181.1898 C151.4675,182.4758 149.7215,185.4838 150.0145,188.5078 C149.9955,189.1758 149.9725,189.8428 149.9725,190.5138 C149.9725,191.0848 150.0045,191.6338 150.0835,192.1668 C149.9695,194.0068 149.7555,195.8408 149.5435,197.6858 C149.2425,200.2948 149.0825,202.9128 148.9455,205.5298 C148.6715,210.8068 148.7105,216.1078 148.8635,221.3848 C149.0115,226.4988 149.3475,231.6238 149.1955,236.7408 C149.0355,242.0218 148.8755,247.3268 148.5745,252.5998 C148.3825,255.9278 148.0745,259.2448 147.8325,262.5688 C147.6055,265.7128 147.5825,268.8698 147.4455,272.0218 C147.2935,275.6698 147.2305,279.2598 147.5155,282.9128 C147.6175,284.2128 147.9065,285.4238 148.2505,286.6738 C148.6525,288.1388 148.8785,289.6038 149.0705,291.1078 C149.6685,295.7488 154.6405,298.8308 159.0625,298.0218 C161.2535,297.6238 163.2425,296.3658 164.5315,294.5488 C165.9215,292.5918 166.2815,290.3658 165.9805,288.0298 C165.7035,285.8748 165.0585,283.8448 164.3425,281.8148 C164.2905,281.5548 164.2485,281.2938 164.2125,281.0318 C164.2425,279.0488 164.4815,277.0978 164.6685,275.1118 C164.9145,272.5298 165.0505,269.9358 165.2385,267.3498 C165.6175,262.0878 166.4215,256.8778 166.7655,251.6118 C167.0895,246.5958 167.4025,241.5378 167.3905,236.5138 C167.3755,230.6198 166.9695,224.7528 166.5675,218.8748 C166.3595,214.2078 166.2385,209.5378 166.1795,204.8658 C166.1485,202.2558 166.1875,199.6468 166.1715,197.0378 C166.1605,195.1698 166.0745,193.2758 165.8865,191.4168 C165.7775,190.3578 165.6285,189.3348 165.4105,188.2878 C164.9185,185.9518 163.7465,183.1198 161.5895,181.8578 C160.4885,181.0848 159.2655,180.6388 157.9215,180.5218 C157.7255,180.5058 157.5305,180.4998 157.3355,180.4998 C156.2585,180.4998 155.2235,180.7288 154.2305,181.1898" id="Fill-27"></path>
            <path d="M198.2295,181.099 C196.6355,182.423 195.2565,184.681 195.2605,186.818 C195.2685,192.099 195.0655,197.392 194.9325,202.677 C194.7995,208.122 194.4165,213.556 193.9675,218.986 C193.0925,229.576 192.5265,240.212 192.6785,250.845 C192.7765,257.568 192.8705,264.283 192.8505,271.009 C192.8425,274.697 192.8775,278.415 193.3315,282.079 C193.5145,283.56 193.7455,285.025 193.8745,286.505 C193.9955,287.923 194.1045,289.329 194.3155,290.736 C194.8235,294.165 197.9525,296.822 201.3385,297.095 C203.3465,297.255 205.3775,296.611 206.9245,295.326 C208.6275,293.915 209.3705,292.095 209.7095,289.966 C210.0225,288.033 209.7255,285.994 209.5735,284.052 C209.4755,282.821 209.3405,281.592 209.2425,280.361 C209.0765,275.537 209.2205,270.709 209.2455,265.884 C209.2725,260.736 209.2925,255.591 209.4915,250.447 C209.6905,245.185 209.9285,239.919 210.3195,234.669 C210.7415,228.927 211.2805,223.197 211.7025,217.454 C212.4175,207.685 211.9525,197.919 211.7885,188.142 C211.7525,185.9 211.3815,183.97 209.9055,182.185 C208.4875,180.478 206.4015,179.392 204.1865,179.216 C203.9695,179.199 203.7515,179.19 203.5355,179.19 C201.6125,179.19 199.7135,179.867 198.2295,181.099" id="Fill-29"></path>
            <path d="M222.9697,44.3817 C220.5637,44.5297 218.1607,44.6397 215.7787,45.0267 C213.2747,45.4367 210.8487,46.2367 208.3367,46.6397 C205.9467,47.0227 203.5247,47.2687 201.1887,47.9207 C198.1067,48.7797 195.0477,49.7367 192.0327,50.8077 C189.1257,51.8387 186.4387,53.4557 183.8527,55.1047 C181.7357,56.4517 179.6687,57.8977 177.6497,59.3857 C175.7237,60.8037 174.0357,62.4677 172.3877,64.1907 C170.2667,66.4047 168.2507,68.6667 166.3757,71.0927 C163.0437,75.4047 160.7587,80.3697 158.8717,85.4597 C157.7237,88.5537 157.0947,91.8587 156.4267,95.0767 C155.9187,97.5377 155.4347,100.0067 155.0207,102.4837 C154.6217,104.8587 154.3137,107.2487 153.8877,109.6197 C153.4387,112.1197 153.0637,114.6197 152.7667,117.1437 C152.2897,121.1477 152.0557,125.1587 151.9307,129.1907 C151.8717,131.0107 151.7117,132.8227 151.5047,134.6317 C151.1887,137.3857 151.1297,140.0337 151.2977,142.8077 C151.5557,144.1827 152.1257,145.4047 153.0127,146.4867 C154.3797,148.1357 156.3957,149.1827 158.5317,149.3547 C162.8097,149.6977 166.8837,146.3697 167.1497,142.0147 C167.2747,139.9757 167.3367,137.9517 167.5907,135.9207 C167.8137,134.1087 167.9857,132.3077 168.0437,130.4837 C168.1647,126.4477 168.5047,122.4477 169.0007,118.4447 C169.5207,114.2297 170.5007,110.0967 171.2117,105.9127 C171.8097,102.4117 172.4337,98.9047 173.1527,95.4237 C174.0117,92.0857 175.2297,88.8957 176.7107,85.7887 C178.4097,82.8997 180.5467,80.2897 182.7697,77.7777 C184.2287,76.2467 185.7217,74.7347 187.4037,73.4557 C189.2037,72.0817 191.0837,70.8077 192.9687,69.5487 C195.0957,68.3077 197.3087,67.2747 199.6267,66.4437 C201.7337,65.8237 203.8417,65.2407 205.9927,64.7837 C207.1607,64.5337 208.3717,64.4247 209.5597,64.2917 C210.9467,64.1317 212.3137,63.9127 213.6847,63.6587 C214.9537,63.4287 216.1887,63.0457 217.4427,62.7567 C218.8327,62.4367 220.2077,62.2017 221.6257,62.0657 C223.7577,61.8547 225.9087,61.7117 228.0517,61.5677 C228.9027,61.5397 229.7537,61.5277 230.6047,61.5537 C231.9457,63.7347 234.2317,65.2827 237.0007,65.5067 C241.4537,65.8617 245.7667,62.3857 246.0167,57.8307 C246.0827,56.5887 246.2317,55.1007 245.9537,53.9327 C245.5557,52.2367 245.0907,50.9247 244.0247,49.5187 C243.2667,48.5227 242.3447,47.7217 241.3017,47.0457 C238.6537,45.3267 235.5637,44.7297 232.4927,44.2997 C231.3597,44.1407 230.2017,44.0827 229.0387,44.0827 C227.0027,44.0827 224.9487,44.2597 222.9697,44.3817" id="Fill-31"></path>
            <path d="M227.1084,87.9735 C226.4754,88.0475 225.8424,88.1255 225.2134,88.2315 C223.1394,88.5865 221.1004,89.2505 219.1394,89.9965 C216.9794,90.8175 215.0384,92.2545 213.1314,93.5555 C212.1514,94.2235 211.1904,94.9225 210.2454,95.6455 C207.3814,97.8255 205.0464,100.6575 203.3384,103.8055 C201.8544,106.5515 200.5184,109.2745 199.5424,112.2395 C198.5694,115.1845 197.9444,118.2745 197.4794,121.3365 C196.7294,126.2975 196.6984,131.3255 196.6904,136.3365 C196.6824,138.9265 196.8934,141.5245 197.2884,144.0825 C197.6434,146.3915 198.0034,148.5985 198.8424,150.8015 C200.1284,154.1725 203.7604,155.9505 207.1394,156.2195 C208.1904,156.3015 209.2334,156.3365 210.2804,156.4575 C213.0064,156.7705 215.6554,156.7155 218.3974,156.4895 C220.6554,156.3015 222.8854,156.0395 225.0964,155.5205 C227.3314,154.9935 229.5654,154.4815 231.8234,154.0395 C234.0144,153.6105 236.1824,153.1185 238.3464,152.5515 C241.6594,151.6885 245.1634,151.2395 247.9244,149.0325 C250.3664,147.0825 251.5104,143.7465 250.9564,140.7035 C250.2494,136.8175 246.9444,133.8525 243.0184,133.5205 C240.1714,133.2785 237.6204,134.1575 234.9444,134.8995 C232.4874,135.5825 230.0034,136.1295 227.5144,136.6845 C225.2644,137.1845 223.0694,137.8755 220.8384,138.4385 C218.7934,138.9505 216.7154,139.2325 214.6204,139.4425 C214.0444,139.4455 213.4684,139.4365 212.8924,139.4255 C212.8844,139.3555 212.8784,139.2855 212.8714,139.2155 C212.7974,136.4995 212.8554,133.7545 212.9444,131.0515 C213.0454,128.0895 213.4164,125.0895 213.9624,122.1645 C214.6234,119.6585 215.4414,117.2355 216.5544,114.8915 C217.2044,113.7055 217.8854,112.5395 218.6854,111.4485 C219.2604,110.9305 219.8574,110.4515 220.4874,109.9995 C221.1144,109.6385 221.7444,109.2825 222.3704,108.9185 C223.6474,108.1725 224.8994,107.4025 226.2524,106.8225 C227.5594,106.5215 228.8854,106.3325 230.2204,106.1925 C231.1494,106.2155 232.0644,106.3065 232.9854,106.4515 C235.0074,106.9835 237.0124,107.6305 238.9834,108.3175 C243.5814,109.9145 248.7454,107.6025 250.4244,102.9815 C252.0964,98.3915 249.6554,93.2275 245.0884,91.5395 C243.8314,91.0755 242.5694,90.6025 241.3114,90.1335 C238.5534,89.1105 235.8034,88.3525 232.8854,87.8715 C232.1764,87.7565 231.4404,87.7105 230.6984,87.7105 C229.4854,87.7105 228.2564,87.8325 227.1084,87.9735" id="Fill-33"></path>
            <path d="M137.2373,135.0258 C135.2883,135.5528 133.3733,135.9078 131.3693,136.0708 C128.6233,136.1818 125.8753,136.2078 123.1603,135.7398 C122.6143,135.6208 122.0683,135.5008 121.5223,135.3808 C120.0143,135.2638 118.5733,135.5258 117.2023,136.1588 C115.1433,137.1198 113.5343,138.8778 112.7573,141.0098 C111.9793,143.1428 112.0853,145.5258 113.0463,147.5808 C113.9173,149.4558 115.8003,151.5138 117.8933,152.0258 C121.5813,152.9278 125.2213,153.7958 128.9993,154.2168 C130.6203,154.4008 132.2533,154.5608 133.8823,154.6348 C135.8153,154.7248 137.7683,154.5258 139.6903,154.2988 C140.5913,154.1928 141.4753,154.0178 142.3703,153.8868 C144.5703,153.9508 146.7323,154.2908 148.9283,154.5458 C151.4133,154.8308 153.7333,154.8968 156.2533,154.7208 C156.6823,154.6898 157.0853,154.6468 157.5143,154.5728 C158.3893,154.4208 160.4603,153.7248 160.6863,153.5878 C162.4133,152.5608 164.1473,151.5998 165.2063,149.7878 C166.0923,148.2758 166.8423,146.9088 166.9133,145.0958 C167.0103,142.6548 166.3893,140.5958 164.8973,138.6548 C163.8193,137.2598 162.0813,136.2098 160.4673,135.5998 C158.3233,134.7878 156.0223,134.7798 153.7763,134.6628 C152.1513,134.5768 150.5303,134.4558 148.9093,134.3458 C147.4593,134.2458 145.9963,134.1718 144.5343,134.1718 C142.0733,134.1718 139.6173,134.3808 137.2373,135.0258" id="Fill-35"></path>
            <path d="M146.982741,176.86939 C144.334668,177.276539 141.758834,177.727652 139.077737,177.922624 C133.389437,178.328817 127.656761,179.36676 122.174857,180.800381 C121.424604,181.021159 120.671255,181.240981 119.921002,181.465582 C118.450424,182.106889 117.240938,183.040655 116.289448,184.264968 C114.853957,186.131543 114.285333,188.506577 114.729087,190.761186 C115.156328,192.94507 116.515452,194.928247 118.470032,196.211817 C120.345148,197.447599 123.19033,198.238958 125.484433,197.660731 C129.199578,196.721231 132.995219,196.442152 136.816659,196.245268 C140.643258,196.122932 144.482242,196.109552 148.289234,195.670864 C149.860947,195.491183 151.421308,195.256069 153.005405,195.1366 C154.614269,195.017132 156.22623,194.957876 157.835094,194.819292 C159.535805,194.524922 161.055919,193.867367 162.390275,192.852363 C164.433605,191.283981 165.727714,188.972982 165.941335,186.524356 C166.296338,182.424197 163.58325,178.601205 159.451182,177.167584 C157.523435,176.497604 155.52448,176.2558 153.511077,176.2558 C151.330493,176.2558 149.131334,176.539657 146.982741,176.86939" id="Fill-37" transform="translate(140.277052, 187.054708) rotate(5.000000) translate(-140.277052, -187.054708) "></path>
            <path d="M227.0566,178.0829 C225.9946,178.2159 224.9516,178.4809 223.8926,178.6219 C222.8766,178.7619 221.8576,178.8479 220.8336,178.9379 C216.9626,179.2699 213.1356,179.9739 209.2676,180.3269 C208.5636,180.3429 207.8596,180.3519 207.1546,180.3519 C204.6736,180.3439 202.4786,180.8249 200.5216,182.4499 C198.6196,184.0239 197.4116,186.3479 197.2166,188.8129 C197.0216,191.1959 197.7866,193.6019 199.3146,195.4419 C200.8106,197.2469 203.2756,198.7079 205.6776,198.7499 C208.0296,198.7929 210.3696,198.8559 212.7246,198.8049 C214.9006,198.7589 217.0766,198.6379 219.2536,198.5179 C221.5486,198.4209 223.8436,198.3729 226.1346,198.2389 C227.6746,198.1509 229.1896,197.8939 230.7166,197.7139 C231.1116,197.7189 231.5036,197.7309 231.8966,197.7429 C233.3416,197.7819 234.7836,197.8249 236.2406,197.5629 C240.4976,196.8049 243.7946,193.1369 244.1386,188.8359 C244.4746,184.6959 241.8886,180.2699 237.8146,178.9889 C236.0136,178.4229 234.1736,177.9539 232.2866,177.8059 C231.8976,177.7749 231.5026,177.7609 231.1086,177.7609 C229.7556,177.7609 228.3836,177.9189 227.0566,178.0829" id="Fill-39"></path>
            <path d="M284.5928,10.3236 C280.3428,12.3076 278.2408,17.6866 280.3588,21.9686 C280.3728,21.9966 280.3868,22.0246 280.4018,22.0526 C280.4178,22.1456 280.4328,22.2376 280.4468,22.3296 C280.4198,27.2886 279.9398,32.2606 279.5378,37.1946 C279.1008,42.5656 279.1238,47.9796 279.0768,53.3666 C279.0228,59.4686 279.3078,65.5536 279.7258,71.6396 C280.0968,76.9796 280.7568,82.3036 281.2218,87.6366 C281.3038,88.5866 281.3428,89.5436 281.3878,90.5006 C281.3608,89.9686 281.3328,89.4356 281.3078,88.9016 C281.3858,94.1866 281.2728,99.4686 281.3158,104.7496 C281.3548,110.0896 281.4638,115.4256 281.5148,120.7646 C281.6158,131.4056 281.8658,142.0536 282.2838,152.6866 C282.7018,163.3706 282.7018,174.0386 282.7018,184.7256 C282.7018,195.5536 282.6008,206.3826 282.5228,217.2106 C282.4838,222.4956 282.3158,227.7806 282.2528,233.0656 C282.1868,238.7186 282.1978,244.3706 282.1908,250.0186 C282.1828,255.4366 281.8228,260.8396 281.4018,266.2376 C281.2058,268.7496 281.0378,271.2606 280.9128,273.7806 C280.7448,277.1516 280.9558,280.5536 281.1318,283.9216 C281.2528,286.2296 281.3508,288.5816 281.9018,290.8316 C282.1748,292.2886 282.7838,293.5896 283.7218,294.7376 C285.1748,296.4836 287.3118,297.5936 289.5768,297.7766 C291.0658,297.8896 292.4878,297.6326 293.8428,297.0076 C295.7178,296.1326 297.6908,294.2926 298.2338,292.2186 C298.5338,291.0536 298.8348,289.8976 298.8978,288.7026 C298.9208,288.2106 298.8588,287.7106 298.8698,287.2186 C298.8978,285.9956 299.0068,284.7806 299.1088,283.5616 C299.3348,280.8436 299.5578,278.1246 299.8158,275.4096 C300.3268,269.9996 300.7958,264.6046 301.0848,259.1786 C301.3548,254.1326 301.2728,249.0576 301.2728,244.0076 C301.2728,238.5146 301.3158,233.0186 301.3508,227.5266 C301.4088,216.7416 301.5378,205.9646 301.6908,195.1786 C301.8468,184.3396 302.0618,173.4876 301.6198,162.6556 C301.4088,157.5446 301.0968,152.4406 300.7998,147.3366 C300.4178,136.9476 300.1208,126.5436 300.0068,116.1476 C299.9448,110.6826 299.9018,105.2186 299.9948,99.7536 C300.0378,97.1826 300.1478,94.6166 300.1278,92.0426 C300.1048,88.5426 299.8588,85.0506 299.5068,81.5736 C299.2098,78.6436 298.7958,75.7296 298.4328,72.8116 C298.0658,69.8436 297.7778,66.8706 297.4898,63.8946 C297.1958,56.8076 297.1608,49.7196 297.4838,42.6246 C297.6518,38.9566 298.0108,35.3006 298.1558,31.6286 C298.2258,29.7926 298.1748,27.9446 298.1748,26.1126 C298.1708,25.1086 298.1588,24.1086 298.1398,23.1086 C298.0848,20.1286 297.5728,17.2646 296.2378,14.5616 C294.6888,11.4326 291.5298,9.5156 288.2208,9.5156 C287.0078,9.5156 285.7748,9.7736 284.5928,10.3236" id="Fill-41"></path>
            <path d="M277.62672,0.6234 C276.795005,0.7404 275.965383,0.8304 275.131575,0.9014 C270.108855,0.9504 265.079858,0.6934 260.054,0.6934 C254.71324,0.6934 249.347372,0.6504 244.009751,0.8534 C237.802753,1.0884 231.639695,1.5374 225.456759,2.1074 C220.135877,2.6004 214.786748,2.7404 209.453312,3.1114 C196.84891,3.9954 184.348081,5.9074 171.731125,6.6444 C166.233438,6.8534 160.743075,7.0744 155.25585,7.4674 C150.436089,7.8154 145.630975,8.3024 140.809122,8.6054 C130.11191,9.0684 119.408421,9.4564 108.704932,9.6114 C103.330695,9.6864 97.9533194,9.9284 92.5748974,9.8614 C86.9108677,9.7874 81.2510227,9.6584 75.5911777,9.4164 C70.3069121,9.1934 65.0352007,9.0574 59.7425656,9.0454 C54.3442662,9.0374 48.9585209,8.8074 43.5602214,8.6584 C38.0342878,8.5104 32.5094003,8.5414 26.9845128,8.6034 C21.8969294,8.6624 16.8166693,8.5764 11.7290859,8.4514 C10.39625,8.4204 9.03621329,8.4354 7.71174679,8.5574 C6.7314742,8.6434 5.83175762,9.0684 4.91634831,9.3734 C3.70277712,9.9164 2.70576561,10.7094 1.92531379,11.7524 C1.1197536,12.8464 0.658387306,14.0574 0.540168733,15.3894 C0.281761763,18.4434 2.30089315,21.9394 5.529411,22.8144 C6.8946786,23.1854 7.90005956,23.3344 9.21929515,23.3184 C10.4788984,23.3034 11.7332707,23.3074 12.9918277,23.3224 C15.3624762,23.3534 17.7320786,23.5104 20.1069119,23.5374 C25.6600463,23.6114 31.2225963,23.7564 36.7757308,23.9554 C42.0641811,24.1434 47.3400772,24.5334 52.6327123,24.6854 C58.1617845,24.8504 63.6908567,24.9354 69.219929,25.2284 C74.6056742,25.5144 79.988281,25.8614 85.378211,26.1154 C90.7482635,26.3614 96.1141313,26.2444 101.488369,26.1544 C107.094858,26.0574 112.705533,26.1034 118.308884,25.8894 C124.099502,25.6664 129.885935,25.3694 135.676552,25.1354 C141.884597,24.8814 148.054979,24.4824 154.238961,23.8964 C159.612152,23.3854 164.990574,23.0294 170.384689,22.7564 C176.228662,22.4594 182.031833,21.9634 187.84756,21.3384 C193.269921,20.7564 198.680775,20.0804 204.104183,19.4944 C206.774039,19.2044 209.452265,18.9984 212.13363,18.8184 C216.622797,18.6304 221.114057,18.5264 225.595901,18.2604 C229.734597,18.0114 233.861785,17.6564 237.999435,17.4164 C244.585151,17.1714 251.157267,17.2404 257.745076,17.2994 C261.271755,17.3304 264.79425,17.3184 268.32093,17.2874 C272.453349,17.2524 276.559614,17.1034 280.647047,16.4864 C285.183293,15.7994 288.243375,11.3574 287.434677,7.1114 C286.675148,3.1244 283.010373,0.5294 278.962694,0.5294 C278.520159,0.5294 278.075532,0.5604 277.62672,0.6234" id="Fill-43"></path>
            <path d="M217.2568,283.0365 C213.5488,283.0955 209.8448,283.3015 206.1408,283.5055 C204.8198,283.5525 203.4828,283.5695 202.1828,283.7905 C201.6038,283.8885 201.0388,284.0475 200.4798,284.2265 C199.1968,284.4885 198.0498,285.0375 197.0338,285.8685 C195.4328,287.1965 194.4168,289.1575 194.2488,291.2315 C194.1478,292.5955 194.3818,293.8995 194.9558,295.1385 C195.7338,296.8095 197.4558,298.7315 199.3428,299.1615 C200.8388,299.5015 201.9478,299.7945 203.4168,299.7315 C204.8048,299.6725 206.1928,299.5735 207.5798,299.4865 C209.8458,299.4245 212.1108,299.3525 214.3778,299.3025 C216.8508,299.2515 219.3308,299.4425 221.8038,299.4935 C224.5148,299.5525 227.2258,299.5795 229.9408,299.6845 C232.4598,299.7825 234.9798,300.0165 237.5028,300.1025 C242.7338,300.2825 247.9678,300.2125 253.2018,300.1345 C258.5228,300.0565 263.8348,300.1065 269.1548,300.2705 C272.6708,300.3845 276.1868,300.3915 279.7018,300.5095 C281.3038,300.5635 282.9088,300.6145 284.5108,300.6615 C286.1938,300.7085 287.8928,300.8205 289.5708,300.7985 C290.2598,300.8485 290.9418,300.8125 291.5578,300.7005 C293.4868,300.3485 295.2368,299.2355 296.3738,297.6385 C297.5498,295.9855 298.0148,293.8885 297.6518,291.8955 C297.1948,289.3805 295.3038,286.8995 292.7918,286.1385 C289.8228,285.2315 286.6438,285.0835 283.5698,284.7945 C280.9598,284.5485 278.3388,284.4075 275.7138,284.3215 C270.3898,284.1385 265.0658,283.9345 259.7368,283.8175 C256.7918,283.7555 253.8468,283.8065 250.9018,283.8525 C248.7918,283.8915 246.6828,283.9275 244.5768,283.9195 C239.3078,283.9075 234.0658,283.4155 228.7998,283.2705 C225.4718,283.1825 222.1288,283.0245 218.7948,283.0245 C218.2818,283.0245 217.7698,283.0285 217.2568,283.0365" id="Fill-45"></path>
            <path d="M47.8241639,280.7523 C42.7624074,280.8033 37.7113523,280.8653 32.6534872,281.1073 C28.5032944,281.3033 24.3842329,281.2443 20.2379315,281.0253 C18.0529026,280.9083 15.8678738,280.8073 13.6828449,280.7723 C12.7284757,280.7563 11.7711879,280.7753 10.8168186,280.8113 C8.75339648,280.8893 6.76196546,280.9283 4.8551727,281.8773 C2.43763187,283.0803 0.762378229,285.4793 0.541540496,288.2523 C0.27206009,291.7363 2.33937367,294.8693 5.45931469,296.1233 C7.00907024,296.7443 8.71156378,296.7643 10.3459576,296.8263 C11.57759,296.8773 12.8082497,296.9283 14.0359907,296.9793 C16.7337133,297.0883 19.4285174,297.2523 22.1233215,297.3773 C27.0975212,297.6043 32.0561552,297.0613 37.0235449,297.0023 C47.2278048,296.8813 57.4349832,297.0533 67.6265959,297.4513 C77.9368968,297.8543 88.2734647,298.1583 98.5915484,298.0253 C103.531698,297.9633 108.467957,297.8733 113.408106,297.9753 C118.238324,298.0723 123.083134,298.0533 127.913351,298.2833 C131.607276,298.4593 135.267151,298.9943 138.968858,299.0183 C139.443611,299.0223 139.922254,299.0223 140.400898,299.0183 C141.833911,299.0143 143.265952,299.0103 144.702856,299.0923 C146.542522,299.1973 148.396781,299.3973 150.224772,299.6043 C154.241684,300.0613 157.897668,296.6623 158.212872,292.6153 C158.543642,288.3733 155.42662,284.8773 151.410681,284.4043 C149.236353,284.1473 147.043542,283.7253 144.85073,283.6903 C143.935275,283.6783 143.015928,283.6903 142.0995,283.7013 C140.697619,283.7173 139.298655,283.7323 137.904556,283.6663 C135.604731,283.5573 133.313661,283.3073 131.0187,283.1623 C128.551543,283.0103 126.08536,282.9513 123.619176,282.8813 C113.601704,282.5963 103.584232,282.3813 93.5677332,282.1503 C83.1659841,281.9123 72.7798007,281.1663 62.3868072,280.7833 C60.2698781,280.7073 58.1490576,280.6823 56.0301828,280.6823 C53.2945189,280.6823 50.558855,280.7243 47.8241639,280.7523" id="Fill-47"></path>
            <path d="M3.6709,12.8461 C3.1379,13.2881 2.6859,13.7831 2.3109,14.3171 C2.3099,14.3171 2.3089,14.3161 2.3079,14.3151 C0.8819,16.1901 0.7799,18.5761 0.7019,20.8151 C0.6549,22.1191 0.6319,23.4241 0.6049,24.7331 C0.5419,27.3461 0.4909,29.9631 0.5339,32.5801 C0.6199,37.8151 0.7329,43.0451 0.7099,48.2801 C0.6829,53.7291 0.6629,59.1781 0.6199,64.6271 C0.5769,69.7761 0.4909,74.9361 0.6119,80.0841 C0.7139,84.4241 0.9009,88.7481 1.2259,93.0761 C1.4829,96.5731 1.8429,100.0651 2.1399,103.5611 C2.6629,109.7261 3.2089,115.8851 3.5759,122.0611 C3.8109,127.8231 4.0099,133.5801 4.4759,139.3301 C4.8669,144.1931 5.2419,149.0551 5.5219,153.9271 C5.9539,164.1091 6.0869,174.2901 6.0149,184.4791 C5.9799,189.6311 6.0109,194.7801 5.9209,199.9321 C5.8309,205.2131 5.6319,210.4911 5.6159,215.7761 C5.5889,226.2561 5.4759,236.7131 5.0029,247.1861 C4.7759,252.2441 4.8159,257.3111 4.6159,262.3731 C4.4089,267.6311 3.9519,272.8691 3.8349,278.1351 C3.7919,280.1621 3.7609,282.1901 3.8619,284.2131 C3.9369,285.8191 3.9799,287.4441 4.2219,289.0371 C4.5619,291.2641 5.8739,293.6701 7.7569,294.9361 C9.0579,295.8191 10.3189,296.3691 11.9009,296.4981 C13.5769,296.6311 14.4719,296.2871 16.0259,295.7331 C17.2879,295.1391 18.3269,294.2761 19.1399,293.1391 C20.3699,291.4081 20.8579,289.2091 20.4799,287.1231 C20.3449,286.4131 20.1279,285.7441 19.8249,285.1151 C19.7919,284.8791 19.7639,284.6431 19.7389,284.4071 C19.6929,279.8111 20.2749,275.2051 20.8119,270.6551 C21.4009,265.6471 21.4249,260.6471 21.5189,255.6161 C21.7139,245.2091 22.2259,234.8111 22.3309,224.4051 C22.4409,213.8461 22.8859,203.2951 23.0729,192.7411 C23.1709,187.4791 23.3819,182.2211 23.4089,176.9631 C23.4369,171.6271 23.4249,166.2911 23.4759,160.9591 C23.5299,155.5141 23.2759,150.0921 22.8979,144.6621 C22.6029,140.4581 22.2019,136.2631 21.9289,132.0551 C21.8449,128.7441 21.8269,125.4301 21.6629,122.1231 C21.4409,117.6231 21.1509,113.1391 20.7839,108.6471 C20.2059,101.5101 19.5589,94.3731 19.0459,87.2291 C18.6379,76.9981 18.6829,66.7511 18.5459,56.5141 C18.4639,50.6471 18.4759,44.7721 18.1319,38.9121 C17.8309,33.7721 17.4759,28.6391 17.1319,23.5021 C16.9989,21.5061 16.7999,19.4011 16.2919,17.4591 C16.0419,16.1231 15.4869,14.9321 14.6239,13.8811 C13.3189,12.3071 11.3159,11.2091 9.2569,11.0921 C9.2449,11.0921 9.2369,11.0921 9.2259,11.0881 C9.0589,11.0791 8.8919,11.0751 8.7269,11.0751 C6.8839,11.0741 5.1119,11.6531 3.6709,12.8461" id="Fill-49"></path>
        </g>
    </g>
</svg>