<?xml version="1.0" encoding="UTF-8"?>
<svg width="800px" height="1000px" viewBox="0 0 800 1000" version="1.1" xmlns="http://www.w3.org/2000/svg" xmlns:xlink="http://www.w3.org/1999/xlink">
    <!-- Generator: Sketch 51.1 (57501) - http://www.bohemiancoding.com/sketch -->
    <title>Instagram_DL</title>
    <desc>Created with Sketch.</desc>
    <defs></defs>
    <g id="Instagram_DL" stroke="none" stroke-width="1" fill="none" fill-rule="evenodd">
        <g id="logo-footer" transform="translate(441.000000, 706.000000)">
            <g>
                <path d="M110.812545,8.25651402 C110.904572,8.56348079 110.810146,8.81874549 110.573746,9.09365441 C110.548096,9.12348237 110.524607,9.14951827 110.482164,9.19539003 C110.410296,9.27306357 110.388406,9.29969141 110.394575,9.28699974 C110.158488,9.77253772 109.949286,10.3963755 109.78094,11.1092981 C109.323962,13.0450464 110.241419,14.6677006 112.137009,15.2172501 C114.194676,15.8138908 116.608374,14.6870388 117.500673,12.7424366 C118.556971,10.4412591 118.361229,8.87677042 116.832238,7.67717368 C114.960938,6.20902274 112.357851,6.27012948 111.072216,7.83985899 L110.795491,8.1777337 C110.794947,8.20051389 110.804056,8.228204 110.812545,8.25651402 Z M110.106083,6.26944954 C110.423589,5.88663707 110.955421,5.49967933 111.419965,5.30848582 C112.37958,4.91358991 113.68037,4.90617957 115.133698,5.23840657 C117.932917,5.87841333 120.108577,8.22064492 119.995807,10.6570534 C119.760531,15.7499925 113.426094,19.0246323 109.732148,15.5763745 C107.943744,13.9068501 107.553768,11.8021869 108.499361,9.2850154 C108.62423,8.95356867 108.851111,8.49010331 109.049811,8.18524994 C109.270059,7.84733807 109.481086,7.64146186 109.750777,7.55562368 C109.778602,7.54676715 109.806094,7.5393618 109.833231,7.53336632 C109.647627,7.16965375 109.747904,6.70130236 110.106083,6.26944954 Z" id="Fill-4" fill="#000000" fill-rule="nonzero"></path>
                <path d="M116,2.36382675 C116.035222,2.23410526 116.077249,2.03952302 116.14169,1.8509661 C116.280178,1.44230796 116.378641,1.03435869 116.377039,0.600890425 C116.376639,0.410561355 116.256963,0.110004457 116.623996,0.0412449782 C116.938196,-0.017590452 117.272408,-0.0501980398 117.512961,0.20711836 C117.655051,0.358460099 117.796741,0.518308165 117.8896,0.694814455 C118.216208,1.3175485 117.776729,2.53572545 117.114308,2.89086461 C116.612389,3.15987721 116.012808,2.911776 116,2.36382675" id="Fill-103" fill="#000000" fill-rule="nonzero"></path>
                <path d="M113.597281,1.30015424 C113.547641,1.6054057 113.484683,1.90995301 113.451993,2.21696486 C113.409214,2.61727733 113.068594,2.79366831 112.724342,2.93802021 C112.426905,3.06335991 112.146418,3.01090032 112.073774,2.6669203 C111.908307,1.88389925 112.059649,1.1040469 112.154086,0.329475719 C112.197269,-0.0278832593 112.773982,-0.106396611 113.167067,0.152380579 C113.512933,0.380527 113.619074,0.676272361 113.597281,1.30015424" id="Fill-107" fill="#000000" fill-rule="nonzero"></path>
                <path d="M112.19066,11.6823452 C110.632914,12.6206952 108.591708,13.9682577 107.051494,14.9237702 C106.603919,15.2015633 106.260092,15.3386205 105.847581,15.6483439 C105.453117,15.9444969 105.00264,16.1407116 104.673147,15.8744932 C104.334372,15.6006913 103.968388,15.4738054 104.253536,15.0032335 C104.507231,14.584149 104.804932,14.5525935 105.343775,14.3418539 C106.408054,13.9255633 108.032176,12.8044553 108.976827,12.2352987 C109.267132,12.0600815 109.780582,11.6912496 110.031699,11.4841022 C110.690685,10.9400907 110.546085,10.7856194 109.803565,10.2635599 C108.494872,9.34277154 106.87805,8.31351987 105.559045,7.40151231 C105.221301,7.16842154 104.87376,6.94291422 104.554064,6.69585398 C103.681603,6.022525 103.837029,5.29651112 105.037953,5.02270928 C105.314335,4.95964705 105.519044,5.02949445 105.664454,5.21269422 C106.875175,6.74015718 109.059218,7.93310366 110.770108,9.0590438 C111.354328,9.44340412 111.803432,9.85804585 112.62433,10.0292717 C113.067264,10.1214703 112.94712,10.4970498 112.994043,10.9392837 C113.057467,11.2214672 112.602656,11.4340876 112.19066,11.6823452 Z" id="chevron" fill="#000000" fill-rule="nonzero" transform="translate(108.500000, 10.500000) rotate(-2.000000) translate(-108.500000, -10.500000) "></path>
                <path d="M4.80555555,7.71270718 L2.78703703,7.71270718 L2.78703703,12.9005525 L2.01851852,12.9005525 L2.01851852,7.71270718 L0,7.71270718 L0,7.09944751 L4.80555555,7.09944751 L4.80555555,7.71270718 Z M9.97657951,10.2403315 L6.8654684,10.2403315 L6.8654684,12.9005525 L6.09694989,12.9005525 L6.09694989,7.09944751 L6.8654684,7.09944751 L6.8654684,9.62707182 L9.97657951,9.62707182 L9.97657951,7.09944751 L10.745098,7.09944751 L10.745098,12.9005525 L9.97657951,12.9005525 L9.97657951,10.2403315 Z M12.6568627,7.09944751 L16.1846405,7.09944751 L16.1846405,7.71270718 L13.4253813,7.71270718 L13.4253813,9.61049724 L15.953159,9.61049724 L15.953159,10.2237569 L13.4253813,10.2237569 L13.4253813,12.2872928 L16.2309368,12.2872928 L16.2309368,12.9005525 L12.6568627,12.9005525 L12.6568627,7.09944751 Z M20.7674291,7.09944751 C20.8847137,7.08287284 21.0158852,7.07044203 21.1609477,7.0621547 C21.3060102,7.05386736 21.4572432,7.04834254 21.6146514,7.04558011 C21.7720596,7.04281768 21.926379,7.04005525 22.0776143,7.03729282 C22.2288497,7.03453039 22.3692805,7.03314917 22.4989106,7.03314917 C23.0174317,7.03314917 23.4665011,7.10497164 23.8461328,7.24861878 C24.2257645,7.39226593 24.539033,7.59254015 24.7859476,7.84944751 C25.0328623,8.10635488 25.2165027,8.41436285 25.3368736,8.77348066 C25.4572445,9.13259848 25.5174291,9.52762215 25.5174291,9.95856354 C25.5174291,10.3508307 25.4603309,10.7278988 25.3461328,11.089779 C25.2319348,11.4516593 25.0513808,11.7720981 24.8044662,12.051105 C24.5575516,12.3301119 24.236567,12.5538666 23.8415032,12.7223757 C23.4464394,12.8908848 22.9680495,12.9751381 22.406318,12.9751381 C22.3075521,12.9751381 22.179467,12.9737569 22.0220588,12.9709945 C21.8646506,12.968232 21.7026152,12.9627072 21.5359477,12.9544199 C21.3692802,12.9461326 21.2149607,12.9392266 21.0729847,12.9337017 C20.9310087,12.9281767 20.8291578,12.9198895 20.7674291,12.9088398 L20.7674291,7.09944751 Z M22.5174291,7.64640884 L22.2535402,7.64640884 C22.1578608,7.64640884 22.0637259,7.64917122 21.9711328,7.65469613 C21.8785398,7.66022104 21.7936641,7.66574581 21.7165032,7.67127072 C21.6393424,7.67679563 21.5791578,7.6823204 21.5359477,7.6878453 L21.5359477,12.3287293 C21.566812,12.3342542 21.6254534,12.3383978 21.7118736,12.3411602 C21.7982938,12.3439227 21.887799,12.3466851 21.9803921,12.3494475 C22.0729851,12.3522099 22.1624904,12.3549724 22.2489106,12.3577348 C22.3353309,12.3604972 22.3939723,12.3618785 22.4248365,12.3618785 C22.8569374,12.3618785 23.2195881,12.2955808 23.5127995,12.1629834 C23.8060109,12.0303861 24.0405762,11.852211 24.2165032,11.628453 C24.3924302,11.404695 24.5174286,11.1477915 24.5915032,10.8577348 C24.6655778,10.5676781 24.7026143,10.2679574 24.7026143,9.95856354 C24.7026143,9.68784397 24.6686642,9.41574724 24.6007625,9.14226519 C24.5328607,8.86878315 24.4155783,8.62154807 24.2489106,8.40055249 C24.0822429,8.17955691 23.8584801,7.99861948 23.5776143,7.85773481 C23.2967486,7.71685014 22.9433571,7.64640884 22.5174291,7.64640884 Z M26.892157,10 C26.892157,9.03314434 27.1205495,8.29143904 27.5773422,7.77486188 C28.0341344,7.25828471 28.6853622,7 29.5310459,7 C29.9878381,7 30.3828957,7.07182247 30.7162311,7.21546961 C31.0495659,7.35911676 31.3257979,7.56215336 31.5449348,7.82458564 C31.7640716,8.08701791 31.9261071,8.40193186 32.0310459,8.76933702 C32.1359847,9.13674217 32.1884533,9.54695907 32.1884533,10 C32.1884533,10.9668557 31.9585171,11.708561 31.4986385,12.2251381 C31.0387594,12.7417153 30.3829019,13 29.5310459,13 C29.080426,13 28.6899981,12.9281775 28.3597496,12.7845304 C28.0295006,12.6408832 27.7548124,12.4378466 27.5356755,12.1754144 C27.3165387,11.9129821 27.1545032,11.5980681 27.0495644,11.230663 C26.9446256,10.8632578 26.892157,10.4530409 26.892157,10 Z M27.7069718,10 C27.7069718,10.3204436 27.7424651,10.624308 27.8134533,10.9116022 C27.884441,11.1988965 27.9940078,11.4516564 28.142157,11.6698895 C28.2903057,11.8881227 28.4801184,12.0621541 28.7116014,12.191989 C28.943084,12.3218238 29.2162295,12.3867403 29.5310459,12.3867403 C30.1051225,12.3867403 30.5557352,12.1919909 30.8828977,11.8024862 C31.2100598,11.4129815 31.3736385,10.8121587 31.3736385,10 C31.3736385,9.68508131 31.3381447,9.38259816 31.267157,9.09254144 C31.1961688,8.80248476 31.0850587,8.54834365 30.9338237,8.3301105 C30.7825881,8.11187735 30.5912321,7.93784595 30.3597496,7.80801105 C30.1282666,7.67817615 29.8520351,7.61325967 29.5310459,7.61325967 C28.9631416,7.61325967 28.5171585,7.80800912 28.1930829,8.19751381 C27.8690068,8.58701851 27.7069718,9.18784125 27.7069718,10 Z M33.5631807,10 C33.5631807,9.03314434 33.7915737,8.29143904 34.2483658,7.77486188 C34.7051585,7.25828471 35.3563864,7 36.2020695,7 C36.6588622,7 37.0539198,7.07182247 37.3872547,7.21546961 C37.7205896,7.35911676 37.9968216,7.56215336 38.2159584,7.82458564 C38.4350953,8.08701791 38.5971308,8.40193186 38.7020695,8.76933702 C38.8070083,9.13674217 38.8594769,9.54695907 38.8594769,10 C38.8594769,10.9668557 38.6295412,11.708561 38.1696621,12.2251381 C37.7097835,12.7417153 37.053926,13 36.2020695,13 C35.7514502,13 35.3610217,12.9281775 35.0307732,12.7845304 C34.7005248,12.6408832 34.425836,12.4378466 34.2066992,12.1754144 C33.9875623,11.9129821 33.8255268,11.5980681 33.7205881,11.230663 C33.6156493,10.8632578 33.5631807,10.4530409 33.5631807,10 Z M34.3779955,10 C34.3779955,10.3204436 34.4134893,10.624308 34.484477,10.9116022 C34.5554651,11.1988965 34.665032,11.4516564 34.8131807,11.6698895 C34.9613298,11.8881227 35.1511426,12.0621541 35.3826251,12.191989 C35.6141076,12.3218238 35.8872532,12.3867403 36.2020695,12.3867403 C36.7761467,12.3867403 37.2267594,12.1919909 37.5539214,11.8024862 C37.8810834,11.4129815 38.0446621,10.8121587 38.0446621,10 C38.0446621,9.68508131 38.0091688,9.38259816 37.9381806,9.09254144 C37.867193,8.80248476 37.7560829,8.54834365 37.6048473,8.3301105 C37.4536122,8.11187735 37.2622558,7.93784595 37.0307732,7.80801105 C36.7992907,7.67817615 36.5230587,7.61325967 36.2020695,7.61325967 C35.6341657,7.61325967 35.1881822,7.80800912 34.8641066,8.19751381 C34.540031,8.58701851 34.3779955,9.18784125 34.3779955,10 Z M40.5027233,7.09944751 C40.6200078,7.08287284 40.7511791,7.07044203 40.8962419,7.0621547 C41.0413041,7.05386736 41.1925371,7.04834254 41.3499456,7.04558011 C41.5073535,7.04281768 41.6616729,7.04005525 41.8129085,7.03729282 C41.9641436,7.03453039 42.1045747,7.03314917 42.2342048,7.03314917 C42.7527259,7.03314917 43.2017954,7.10497164 43.581427,7.24861878 C43.9610587,7.39226593 44.2743267,7.59254015 44.5212419,7.84944751 C44.7681565,8.10635488 44.9517969,8.41436285 45.0721678,8.77348066 C45.1925387,9.13259848 45.2527233,9.52762215 45.2527233,9.95856354 C45.2527233,10.3508307 45.1956251,10.7278988 45.081427,11.089779 C44.967229,11.4516593 44.786675,11.7720981 44.5397604,12.051105 C44.2928452,12.3301119 43.9718612,12.5538666 43.5767974,12.7223757 C43.1817336,12.8908848 42.7033432,12.9751381 42.1416122,12.9751381 C42.0428463,12.9751381 41.9147609,12.9737569 41.757353,12.9709945 C41.5999445,12.968232 41.437909,12.9627072 41.2712419,12.9544199 C41.1045742,12.9461326 40.9502547,12.9392266 40.8082789,12.9337017 C40.6663026,12.9281767 40.5644517,12.9198895 40.5027233,12.9088398 L40.5027233,7.09944751 Z M42.2527233,7.64640884 L41.9888344,7.64640884 C41.8931549,7.64640884 41.7990201,7.64917122 41.706427,7.65469613 C41.6138339,7.66022104 41.5289584,7.66574581 41.4517974,7.67127072 C41.3746364,7.67679563 41.3144517,7.6823204 41.2712419,7.6878453 L41.2712419,12.3287293 C41.3021061,12.3342542 41.3607475,12.3383978 41.4471678,12.3411602 C41.533588,12.3439227 41.6230932,12.3466851 41.7156863,12.3494475 C41.8082794,12.3522099 41.8977846,12.3549724 41.9842048,12.3577348 C42.0706251,12.3604972 42.1292665,12.3618785 42.1601307,12.3618785 C42.5922316,12.3618785 42.9548823,12.2955808 43.2480937,12.1629834 C43.5413051,12.0303861 43.7758705,11.852211 43.9517974,11.628453 C44.1277244,11.404695 44.2527228,11.1477915 44.3267974,10.8577348 C44.400872,10.5676781 44.4379085,10.2679574 44.4379085,9.95856354 C44.4379085,9.68784397 44.4039584,9.41574724 44.3360567,9.14226519 C44.2681549,8.86878315 44.150872,8.62154807 43.9842048,8.40055249 C43.8175371,8.17955691 43.5937743,7.99861948 43.3129085,7.85773481 C43.0320428,7.71685014 42.6786513,7.64640884 42.2527233,7.64640884 Z M50.7293025,12.9005525 L46.8959692,12.9005525 L46.8959692,7.09944751 L47.6644877,7.09944751 L47.6644877,12.2872928 L50.7293025,12.2872928 L50.7293025,12.9005525 Z M52.0206971,7.09944751 L55.5484749,7.09944751 L55.5484749,7.71270718 L52.7892156,7.71270718 L52.7892156,9.61049724 L55.3169934,9.61049724 L55.3169934,10.2237569 L52.7892156,10.2237569 L52.7892156,12.2872928 L55.5947712,12.2872928 L55.5947712,12.9005525 L52.0206971,12.9005525 L52.0206971,7.09944751 Z M63.9645968,12.9005525 L60.1312634,12.9005525 L60.1312634,7.09944751 L60.8997819,7.09944751 L60.8997819,12.2872928 L63.9645968,12.2872928 L63.9645968,12.9005525 Z M65.4319172,7.09944751 L66.2004357,7.09944751 L66.2004357,12.9005525 L65.4319172,12.9005525 L65.4319172,7.09944751 Z M72.1955335,8.42541436 C72.1955335,8.5635366 72.1708426,8.70441915 72.1214594,8.8480663 C72.0720767,8.99171344 71.9980031,9.12569001 71.8992372,9.25 C71.8004712,9.37431004 71.6739296,9.48342495 71.5196075,9.57734807 C71.365286,9.67127118 71.1831888,9.74309369 70.9733113,9.79281768 L70.9733113,9.82596685 C71.1584975,9.8535913 71.3359651,9.90055216 71.5057187,9.96685083 C71.6754728,10.0331495 71.8251626,10.1243088 71.9547927,10.2403315 C72.0844234,10.3563542 72.1893606,10.4972367 72.2696075,10.6629834 C72.349855,10.8287301 72.3899779,11.0248607 72.3899779,11.2513812 C72.3899779,11.5497252 72.3205345,11.8080099 72.1816446,12.0262431 C72.0427552,12.2444762 71.8606585,12.4226512 71.6353483,12.5607735 C71.4100386,12.6988957 71.1523251,12.8011047 70.8622001,12.8674033 C70.5720757,12.933702 70.2757819,12.9668508 69.9733113,12.9668508 L69.6029409,12.9668508 C69.4609651,12.9668508 69.3128185,12.9627072 69.1584964,12.9544199 C69.0041749,12.9461326 68.8498555,12.935083 68.6955335,12.9212707 C68.541212,12.9074585 68.4054111,12.8867405 68.2881261,12.859116 L68.2881261,7.14917127 C68.5165227,7.11602192 68.7819517,7.08839788 69.0844224,7.06629834 C69.386893,7.0441988 69.7171369,7.03314917 70.0751631,7.03314917 C70.3159054,7.03314917 70.5612732,7.05110479 70.8112742,7.08701657 C71.0612758,7.12292836 71.288125,7.19198844 71.4918298,7.2941989 C71.6955345,7.39640935 71.8637428,7.53867311 71.9964594,7.72099448 C72.1291765,7.90331584 72.1955335,8.13812012 72.1955335,8.42541436 Z M70.0473853,12.3701657 C70.2449172,12.3701657 70.4362737,12.3494477 70.6214594,12.308011 C70.8066456,12.2665744 70.9702243,12.2002767 71.1122001,12.109116 C71.2541765,12.0179553 71.3668298,11.906078 71.4501631,11.7734807 C71.533497,11.6408833 71.5751631,11.4834263 71.5751631,11.301105 C71.5751631,11.0745845 71.5242377,10.8922659 71.4223853,10.7541436 C71.320533,10.6160214 71.1878185,10.5082877 71.0242372,10.4309392 C70.8606564,10.3535908 70.677016,10.3011051 70.4733113,10.2734807 C70.2696065,10.2458562 70.0659049,10.2320442 69.8622001,10.2320442 L69.0566446,10.2320442 L69.0566446,12.3121547 C69.099855,12.3232045 69.1615829,12.3314917 69.2418298,12.3370166 C69.3220772,12.3425415 69.4084964,12.3480663 69.501089,12.3535912 C69.5936821,12.3591161 69.6893601,12.3632597 69.7881261,12.3660221 C69.886892,12.3687845 69.9733113,12.3701657 70.0473853,12.3701657 Z M69.5381261,9.6519337 C69.6430649,9.6519337 69.769607,9.64917132 69.9177557,9.64364641 C70.0659049,9.6381215 70.1893601,9.6298343 70.2881261,9.61878453 C70.4362752,9.57458541 70.5751626,9.52071855 70.7047927,9.45718232 C70.8344234,9.39364609 70.9501626,9.31906119 71.052015,9.23342541 C71.1538673,9.14778964 71.2341137,9.04834309 71.2927557,8.93508287 C71.3513982,8.82182265 71.3807187,8.69889567 71.3807187,8.56629834 C71.3807187,8.38397698 71.3421389,8.23342601 71.2649779,8.11464088 C71.1878174,7.99585576 71.0844234,7.90055285 70.9547927,7.82872928 C70.8251626,7.75690571 70.677016,7.70580124 70.5103483,7.67541436 C70.3436811,7.64502749 70.1739296,7.62983425 70.001089,7.62983425 C69.7973843,7.62983425 69.610658,7.63397785 69.4409038,7.64226519 C69.2711502,7.65055253 69.1430649,7.66298333 69.0566446,7.67955801 L69.0566446,9.6519337 L69.5381261,9.6519337 Z M74.0332243,7.15745856 C74.2677932,7.11878435 74.5378524,7.08839788 74.8434095,7.06629834 C75.1489666,7.0441988 75.428285,7.03314917 75.6813725,7.03314917 C75.9653246,7.03314917 76.2353838,7.0607732 76.4915576,7.1160221 C76.747732,7.17127099 76.9730381,7.26243029 77.1674836,7.38950276 C77.361929,7.51657523 77.5177917,7.68231943 77.6350762,7.88674033 C77.7523606,8.09116123 77.8110021,8.33977753 77.8110021,8.63259669 C77.8110021,9.08563762 77.6721147,9.45303725 77.3943354,9.73480663 C77.1165561,10.016576 76.7647078,10.2044194 76.3387799,10.2983425 L76.7832243,10.6049724 L78.3943354,12.9005525 L77.4961873,12.9005525 L75.7091502,10.3977901 L74.8017428,10.2734807 L74.8017428,12.9005525 L74.0332243,12.9005525 L74.0332243,7.15745856 Z M75.699891,7.62983425 L75.449891,7.62983425 C75.3634707,7.62983425 75.2801384,7.63259664 75.199891,7.63812155 C75.1196436,7.64364645 75.0440273,7.64917122 74.9730391,7.65469613 C74.902051,7.66022104 74.8449527,7.66850824 74.8017428,7.67955801 L74.8017428,9.81767956 L75.5239651,9.81767956 C75.949893,9.81767956 76.3017413,9.72375783 76.5795206,9.5359116 C76.8572999,9.34806538 76.9961873,9.0552506 76.9961873,8.65745856 C76.9961873,8.35911455 76.8819908,8.11326064 76.6535947,7.9198895 C76.4251986,7.72651837 76.1073004,7.62983425 75.699891,7.62983425 Z M82.722767,11.2928177 L80.3338781,11.2928177 L79.68573,12.9005525 L78.9264707,12.9005525 L81.3801744,7.00828729 L81.7320263,7.00828729 L84.1949892,12.9005525 L83.3894337,12.9005525 L82.722767,11.2928177 Z M80.5838781,10.6961326 L82.4912855,10.6961326 L81.7690633,8.93093923 L81.5375818,8.05248619 L81.5283226,8.05248619 L81.2968411,8.94751381 L80.5838781,10.6961326 Z M85.3937907,7.15745856 C85.6283596,7.11878435 85.8984187,7.08839788 86.2039758,7.06629834 C86.5095329,7.0441988 86.7888514,7.03314917 87.0419388,7.03314917 C87.325891,7.03314917 87.5959501,7.0607732 87.852124,7.1160221 C88.1082984,7.17127099 88.3336044,7.26243029 88.5280499,7.38950276 C88.7224954,7.51657523 88.878358,7.68231943 88.9956425,7.88674033 C89.112927,8.09116123 89.1715684,8.33977753 89.1715684,8.63259669 C89.1715684,9.08563762 89.0326811,9.45303725 88.7549018,9.73480663 C88.477123,10.016576 88.1252742,10.2044194 87.6993462,10.2983425 L88.1437906,10.6049724 L89.7549018,12.9005525 L88.8567536,12.9005525 L87.0697166,10.3977901 L86.1623092,10.2734807 L86.1623092,12.9005525 L85.3937907,12.9005525 L85.3937907,7.15745856 Z M87.0604573,7.62983425 L86.8104573,7.62983425 C86.7240371,7.62983425 86.6407047,7.63259664 86.5604573,7.63812155 C86.4802099,7.64364645 86.4045936,7.64917122 86.3336055,7.65469613 C86.2626178,7.66022104 86.2055196,7.66850824 86.1623092,7.67955801 L86.1623092,9.81767956 L86.8845314,9.81767956 C87.3104594,9.81767956 87.6623081,9.72375783 87.9400869,9.5359116 C88.2178663,9.34806538 88.3567536,9.0552506 88.3567536,8.65745856 C88.3567536,8.35911455 88.2425571,8.11326064 88.014161,7.9198895 C87.7857649,7.72651837 87.4678668,7.62983425 87.0604573,7.62983425 Z M92.1111111,10.5966851 L89.9722222,7.09944751 L90.8703704,7.09944751 L92.3888889,9.63535912 L92.5462963,10.140884 L92.5555556,10.140884 L92.7222222,9.61878453 L94.1759259,7.09944751 L95,7.09944751 L92.8796296,10.5883978 L92.8796296,12.9005525 L92.1111111,12.9005525 L92.1111111,10.5966851 Z" id="the-Doodle-Library" fill="#666666" fill-rule="nonzero" opacity="0.595278533"></path>
            </g>
        </g>
        <g id="Instagram" transform="translate(244.000000, 281.000000)" fill="#2C2C2C">
            <path d="M286.105233,170.114804 C286.121727,170.451102 286.13822,170.785666 286.155581,171.121964 C286.13822,170.785666 286.121727,170.450235 286.105233,170.114804 M273.426208,30.4982453 C273.459195,30.5285814 273.491314,30.5580508 273.523432,30.5875202 C273.853299,30.8926154 274.182297,31.1977105 274.512163,31.5028056 C274.150178,31.1691078 273.788193,30.8336765 273.426208,30.4982453 M272.003442,29.1790555 C272.051186,29.2232596 272.097194,29.266597 272.14407,29.3099344 C272.097194,29.266597 272.050318,29.2232596 272.003442,29.1790555 M271.266451,28.4960585 C271.486073,28.6997441 271.705694,28.9042966 271.925316,29.1071155 C271.705694,28.9042966 271.486073,28.7006109 271.266451,28.4960585 M242.081082,25.0126002 C245.377143,25.0767395 248.676675,25.1244106 251.976208,25.2084851 C254.8174,25.2821586 257.625605,25.7189994 260.416449,26.2225797 C261.634351,26.5008057 262.851384,26.7790316 264.071022,27.0477233 C266.499013,27.5833733 269.012942,28.0063461 271.338501,28.9068968 C271.983477,29.3264026 272.604146,29.784912 273.184885,30.2858921 C275.799511,32.7691238 278.340351,35.4482404 280.421981,38.384781 C282.89598,42.7462546 284.596528,47.5601703 286.166866,52.3177475 C286.701597,54.0347744 287.228515,55.7596019 287.606994,57.5156324 C288.064466,59.6339634 288.333568,61.7522944 288.540169,63.899228 C288.575759,66.2498473 288.555794,68.5935326 288.397805,70.9467521 C288.190337,74.074844 287.969847,77.2003355 287.814462,80.3318944 C287.501957,86.7302246 288.506314,93.1606245 289.087921,99.5320856 C289.153026,103.430716 288.995905,107.312878 288.488952,111.193307 C287.875227,115.898879 287.200737,120.578449 287.017574,125.324759 C286.834412,129.939322 286.888232,134.554753 286.793612,139.169317 C286.698993,143.835019 286.478503,148.506788 286.267562,153.169023 C286.135616,156.097763 285.955925,159.016102 285.884744,161.948309 C285.802277,165.367628 286.026239,168.79128 286.207666,172.205399 C286.287528,173.874755 286.356973,175.543244 286.393432,177.214333 C286.437704,179.323996 286.244124,181.437127 286.057489,183.538989 C285.857833,185.787333 285.651233,188.039143 285.671198,190.29702 C285.68856,192.515027 285.74238,194.735634 285.738908,196.953641 C285.731963,201.520534 285.759742,206.084826 285.382999,210.642185 C285.002785,215.212544 284.440276,219.769903 284.104333,224.34373 C283.958497,226.361518 283.803113,228.352437 283.521858,230.35289 C282.591287,233.960293 281.344739,237.485356 279.753568,240.85527 C278.947999,242.131122 278.066041,243.350636 277.221409,244.601353 C276.008716,246.39292 274.838558,248.206156 273.455723,249.868578 C271.880176,251.450392 270.196989,252.953332 268.475607,254.352262 C266.781135,255.724324 264.99812,256.952505 263.17691,258.137349 C260.531902,259.726097 257.86172,261.206502 255.051779,262.494489 C252.265275,263.767741 249.373735,264.79397 246.477855,265.792463 C242.596716,266.980774 238.690402,268.101478 234.807527,269.282855 C230.399469,270.623714 225.943668,271.371717 221.348976,271.632608 C218.992167,271.767821 216.645774,271.923835 214.299382,272.19426 C211.983372,272.462085 209.701217,272.932729 207.416458,273.383438 C203.401636,274.179112 199.36598,274.764167 195.279977,275.042393 C195.233101,275.04586 195.187961,275.047593 195.141954,275.05106 C192.541217,275.154203 189.942217,275.22961 187.351897,275.550307 C185.644404,275.761793 183.938647,275.952478 182.22421,276.08769 C180.890855,276.092024 179.563576,276.027885 178.230221,275.966346 C175.849974,275.854535 173.459311,276.04782 171.089481,276.209902 C168.027799,276.417921 164.971326,276.663211 161.911381,276.857362 C156.74029,277.077516 151.55965,277.222263 146.403317,277.639168 C142.181894,277.9798 138.013424,278.72867 133.79721,279.067568 C131.867491,279.106572 129.936904,279.113506 128.008053,279.12564 C125.417734,279.143842 122.834358,279.272121 120.250115,279.415134 C117.87334,279.453271 115.522608,279.272987 113.148438,279.199314 C109.66661,279.09097 106.197804,279.280788 102.722053,279.487941 C97.7141597,279.785235 92.7774477,280.750792 87.7782348,281.094891 C85.6124011,281.1963 83.4474354,281.334113 81.2833378,281.457191 C77.8527267,281.543866 74.4169071,281.255239 70.9932405,281.122627 C68.0730543,281.011683 65.188459,280.650249 62.3220931,280.121533 C60.0998349,279.51481 57.9175078,278.779808 55.7134791,278.113279 C53.3853163,277.411214 51.0632301,276.765487 48.8461803,275.790396 C46.7341669,274.557014 44.5987156,273.36697 42.4858341,272.130121 C40.413752,270.920141 38.4727483,269.592284 36.6063986,268.108412 C36.2739279,267.734844 35.963159,267.346541 35.6671473,266.937437 C34.92842,265.732658 34.1723314,264.538279 33.357214,263.384638 C32.647133,262.380945 31.8433006,261.461326 31.1063095,260.484501 C30.7096017,259.709629 30.3762629,258.920889 30.077647,258.107879 C29.5481245,256.259107 29.0272827,254.393 28.1661577,252.67944 C27.672226,251.697415 27.2156214,250.71279 26.8058926,249.700428 C26.3935595,247.990336 26.1661252,246.274176 26.0532762,244.493009 C25.9395591,242.656371 25.7555283,240.828401 25.6010119,238.99783 C25.4716696,233.272963 25.751188,227.539428 24.9551681,221.842296 C24.2546359,216.814294 23.7598363,211.762022 23.420421,206.69675 C23.2320499,200.373827 23.1669447,194.039636 23.0801377,187.717579 C23.0323939,184.033902 23.0219771,180.346758 23.0150325,176.663081 C23.0063518,172.743649 22.7181527,168.827684 22.4421066,164.916919 C22.2927986,161.128365 22.2216169,157.340679 22.2181446,153.548658 C22.2120681,148.882956 22.3943627,144.224188 22.5028714,139.558486 C22.6053037,135.045332 22.659124,130.549513 22.9308298,126.038958 C23.1981952,121.529271 23.1200689,117.006582 23.4863943,112.499495 C23.8666088,107.874531 24.7346784,103.284236 25.3110767,98.675739 C25.5819144,96.4950022 25.8466756,94.3151322 25.9786222,92.1213942 C26.1044923,89.9883286 26.1687295,87.8448619 26.3926914,85.7187302 C26.8571087,81.3243203 27.1661415,76.9195093 27.9257024,72.5580358 C28.3050488,70.391167 28.769466,68.2416331 29.2000286,66.0851652 C29.6140978,63.9893697 29.7425721,61.8563041 29.916186,59.7327726 C30.178343,56.4842029 30.7356437,53.2642358 31.3467648,50.0624704 C31.9248991,47.8383963 32.6271674,45.6481253 33.3537417,43.4682553 C34.0785799,41.2866517 34.8728636,39.1397181 35.8277401,37.0551903 C36.6428575,35.6995972 37.5421776,34.4150773 38.5456661,33.1929633 C39.6802331,32.0999947 40.8651482,31.0564307 42.0344379,30.0033324 C43.1637965,28.9823038 44.3139888,27.951741 45.5353627,27.0260547 C46.4624611,26.54761 47.4156015,26.1125028 48.3861034,25.7302671 C48.730727,25.6461926 49.0753506,25.5664518 49.4191062,25.4858443 C51.4174025,26.4479341 53.6891407,26.801567 55.9513301,26.2719843 C56.4617551,26.1532399 56.9652354,26.0500969 57.4730562,25.9686227 C59.1084993,26.015427 60.7430744,26.1315712 62.3802538,26.1809758 C63.5026678,26.214779 64.6285541,26.197444 65.7544404,26.1775088 C66.8629653,26.1601739 67.9680179,26.1402387 69.0774109,26.1705748 C71.3317877,26.2381812 73.5870326,26.3603926 75.8457497,26.3629928 C78.0532508,26.3664598 80.2607518,26.204378 82.4682529,26.1497729 C84.9465917,26.0925676 87.4257985,26.1809758 89.9041373,26.2685173 C91.8399325,26.3361236 93.7765958,26.4037299 95.7158634,26.4002629 C97.930309,26.4002629 100.134338,26.3941957 102.345311,26.5025392 C104.542395,26.6074156 106.736875,26.8033005 108.937432,26.908177 C112.006058,27.0503236 115.067739,27.1560668 118.136366,27.0641915 C121.307424,26.9731831 124.474142,26.8171685 127.6452,26.6984241 C131.744225,26.5458765 135.826756,26.3291896 139.883246,25.7163991 C142.264361,25.3558322 144.626378,25.0594045 147.010965,24.8574523 C150.901653,24.9319926 154.684701,25.7675372 158.539798,26.2719843 C161.025081,26.5970146 163.710889,26.4279989 166.176207,26.214779 C166.932295,26.1497729 167.695328,26.0995016 168.451417,26.0180273 C169.704041,25.8854149 170.956666,25.7632035 172.211027,25.6496596 C175.861259,25.5924542 179.493263,25.8022071 183.15044,25.9096838 C187.755549,26.0483634 192.364131,26.1532399 196.968372,26.2546494 C202.498844,26.3803278 208.012822,26.5493435 213.536349,26.1740418 C217.507768,25.9053501 221.416685,25.1564802 225.380291,24.8089145 C230.954166,24.6754354 236.504603,24.9016565 242.081082,25.0126002 M249.517835,0.00866747528 C244.759945,0.0702065497 240.002924,0.100542713 235.245034,0.0702065497 C228.38468,0.0242689308 221.552104,0.199351931 214.711715,0.708999478 C211.050198,0.814742676 207.381735,0.774005542 203.720218,0.85547981 C199.426745,0.94995529 195.137613,1.09903587 190.841537,1.13283902 C186.341464,1.16664217 181.845731,1.0851679 177.345658,1.03142956 C172.747494,0.977691211 168.190128,1.53240963 163.623214,1.93458048 C160.77855,1.86610743 158.018088,1.3495259 155.202938,0.878881993 C152.846129,0.482778373 150.517099,0.235755328 148.11949,0.266091491 C146.084735,0.292960664 143.714905,0.367500952 141.65324,0.635325938 C139.11674,0.963823251 136.603679,1.37639507 134.074124,1.75949748 C131.855338,2.09666227 129.638288,2.29168046 127.404745,2.43296031 C124.010593,2.59157511 120.611232,2.75279015 117.211003,2.74412267 C113.03038,2.73458845 108.859306,2.51096759 104.681286,2.44336128 C102.45382,2.40609114 100.226353,2.45636249 98.0014907,2.50403361 C95.9910415,2.54823773 93.9831964,2.59244186 91.9762195,2.57163991 C87.7574011,2.52916929 83.5516038,2.73198821 79.3432022,2.95994281 C77.0133034,3.0310161 74.6816684,3.01021416 72.3491653,3.05961877 C68.7961563,3.13415906 65.2518281,3.37944861 61.7109721,3.63253889 C60.9626961,3.65420758 60.213552,3.6637418 59.4670121,3.68887748 C58.093726,3.73828209 56.8055106,3.80848864 55.525976,3.95583572 C54.8098186,3.49472603 54.0381047,3.11249037 53.2108343,2.80912874 C51.8279994,2.50056662 50.4547133,2.0333897 49.0336833,1.98918558 C47.8774146,1.94844844 46.1204417,2.0333897 44.8053162,2.28041275 C42.8347981,2.64964719 40.9024752,3.33697798 39.0508827,4.07891386 C36.3008381,5.17534949 33.7139906,6.70949261 31.2616939,8.34764544 C27.0168335,11.1819099 23.2971551,14.8690538 19.9299131,18.6740755 C16.4368009,22.6151765 13.7987373,27.179469 12.0252711,32.1363981 C11.350781,34.018107 10.8247308,35.9752229 10.3125697,37.9054696 C9.50266078,40.9798231 8.72573847,44.0741118 8.18666723,47.2091376 C7.46790558,51.3565245 6.90192419,55.4874432 6.56945353,59.6859682 C6.22396182,64.0197059 5.31509292,68.2546343 4.79251501,72.5684367 C4.53122605,74.7153704 4.36542475,76.8579703 4.27080517,79.0179051 C4.17531751,81.246313 3.93138994,83.4599862 3.81940896,85.6849271 C3.70742798,87.9020673 3.63971855,90.1166072 3.43659026,92.3276801 C3.23606618,94.5014829 2.9582839,96.6718187 2.70741178,98.8386876 C2.17441703,103.402113 1.20131098,107.898799 1.00512725,112.496028 C0.808075443,117.094124 0.669184303,121.695687 0.496438448,126.296382 C0.327164872,130.874543 0.357547309,135.458771 0.235149492,140.036064 C0.112751675,144.545752 -0.03568823,149.045038 0.00771525109,153.558192 C0.0710843335,159.926187 0.42438867,166.282046 0.802867025,172.640506 C1.1492268,181.557605 1.45652345,190.477303 1.68308962,199.397869 C1.81850848,204.724033 2.13101355,210.05973 2.75168333,215.351224 C3.04248665,217.837056 3.35846399,220.315087 3.73086586,222.789651 C4.05639197,224.929651 4.51820501,227.046248 4.75866029,229.199249 C4.85414795,230.048662 4.92185738,230.898074 4.97828191,231.750087 C5.08158219,234.363331 5.20398001,236.976575 5.37933007,239.586352 C5.53211033,241.848563 5.9357627,244.089972 6.26389302,246.327914 C6.58681492,248.514718 6.77258182,250.668585 7.40366843,252.798184 C7.92537828,254.562015 8.48528318,256.251306 9.25178866,257.917195 C9.72662274,258.949491 10.3872237,259.90118 10.9948725,260.858936 C11.7440165,262.044647 12.2049615,263.375104 12.697157,264.68476 C13.195429,266.018684 13.7787717,267.302337 14.4975334,268.534852 C15.6702954,270.549174 17.0001781,272.326873 18.4915217,274.087237 C19.2380616,274.964385 19.9021349,275.884871 20.5566593,276.829626 C20.9160402,277.351408 21.2519831,277.882724 21.6183085,278.394105 C22.621797,279.795636 24.0358824,281.081889 25.3310423,282.172258 C26.1991119,282.900326 27.0775984,283.614526 27.9630294,284.322658 C29.6245146,285.66005 31.3806195,286.844894 33.207906,287.944796 C34.9987337,289.024764 36.8572707,290.003322 38.6576471,291.070288 C41.2722728,292.613965 43.8790859,293.711268 46.7688897,294.564147 C51.4408404,295.94921 55.9608789,297.682705 60.8038393,298.444576 C62.7769616,298.752271 64.7335905,299.111105 66.7275464,299.260185 C68.7379957,299.405799 70.7658063,299.27752 72.7797278,299.4162 C74.8353167,299.558347 76.8830929,299.903312 78.941286,299.974385 C81.4109441,300.06366 83.8875467,299.902445 86.3572048,299.754231 C89.8181984,299.620752 93.2765877,299.547079 96.7228241,299.148375 C99.5067234,298.828545 102.292359,298.532984 105.085807,298.316297 C107.810677,298.240024 110.522527,298.261692 113.25087,298.437642 C114.850722,298.539051 116.44797,298.711534 118.052163,298.711534 C119.893339,298.711534 121.731042,298.613592 123.572218,298.579789 C125.233703,298.552919 126.89866,298.620526 128.563618,298.691599 C130.150449,298.759205 131.740753,298.823345 133.331056,298.803409 C137.262544,298.752271 141.173197,298.400372 145.0934,298.147282 C150.244525,297.930595 155.402594,297.866455 160.546775,297.421814 C165.389735,297.003175 170.219675,296.464058 175.055691,296.007282 C176.231057,296.004682 177.399479,296.02375 178.580053,296.077488 C180.970717,296.185832 183.350964,296.080955 185.741628,295.924941 C188.423963,295.749858 191.069839,295.235877 193.746098,295.004455 C196.001343,294.931648 198.255719,294.886577 200.511832,294.753965 C202.787911,294.618752 205.031871,294.276387 207.276699,293.890684 C209.647397,293.477246 212.004206,292.993601 214.377508,292.59663 C216.44525,292.254265 218.528617,292.080916 220.616325,291.944836 C223.174526,291.83736 225.734463,291.722082 228.29006,291.550466 C230.671175,291.391851 233.02104,290.887404 235.346598,290.37949 C237.574933,289.894978 239.768545,289.133107 241.952608,288.47958 C244.160109,287.823452 246.39452,287.267867 248.615042,286.655076 C253.773112,285.229276 258.899931,283.387438 263.742024,281.102691 C268.591061,278.817078 273.144954,275.97328 277.553011,272.932729 C279.506168,271.584937 281.350816,270.142669 283.111261,268.55132 C285.813562,266.100158 288.488952,263.489515 290.689509,260.57811 C292.120956,258.686 293.29719,256.624008 294.768568,254.7579 C295.372745,253.992562 296.016852,253.261894 296.59325,252.473154 C297.759936,250.861003 298.569845,249.019165 299.478714,247.255334 C300.479598,245.322487 301.296452,243.226691 302.018686,241.174233 C303.012625,238.340835 303.856389,235.49357 304.388516,232.531027 C304.799113,230.24888 305.049985,227.963267 305.341656,225.66812 C305.619438,223.457047 305.982291,221.256375 306.298269,219.052236 C306.93196,214.599754 307.339084,210.083132 307.45801,205.59078 C307.57954,201.003085 307.583012,196.415391 307.766175,191.831163 C307.945865,187.412484 308.769663,183.044943 308.739281,178.613263 C308.708898,173.954495 308.434588,169.312196 308.525735,164.649961 C308.705426,155.614118 309.719331,146.604277 309.916383,137.567567 C310.021419,132.827325 310.105622,128.097484 310.567435,123.378044 C311.011019,118.831086 311.971104,114.3318 312.567468,109.80131 C313.656895,101.523871 312.423368,93.2117626 311.766239,84.9447247 C311.777524,80.5260458 312.005827,76.1203681 312.154267,71.7051562 C312.344374,66.1527715 311.933777,60.5596498 311.215015,55.0610034 C310.645562,50.7376668 309.414639,46.4238643 308.088228,42.2799444 C307.166338,39.3884746 306.21667,36.4935379 304.92151,33.7407478 C302.835539,29.3021337 300.590711,24.8461846 297.430938,21.051564 C295.942198,19.2599968 294.403111,17.5230348 292.758119,15.871014 C291.937793,15.0484706 291.10705,14.2354614 290.262419,13.4328532 C289.038441,12.2722782 287.814462,11.1039026 286.512358,10.0274021 C284.596528,8.44298767 282.334339,7.40635762 280.144199,6.2587839 C278.780462,5.54805092 277.244847,5.12507813 275.783017,4.65703447 C274.694458,4.30513497 273.606767,3.95323547 272.514735,3.59786899 C269.391421,2.58204088 266.217758,1.7525635 262.99288,1.11637082 C260.815761,0.689064284 258.649059,0.279959451 256.431141,0.15081407 C254.604723,0.0442041239 252.783513,0 250.957094,0 C250.477052,0 249.997877,0.00346699011 249.517835,0.00866747528" id="Fill-65"></path>
            <path d="M169.358166,53.2913018 C167.182412,53.4196134 165.003187,53.660631 162.844783,53.9718731 C158.364881,54.6186326 153.878038,55.2688599 149.412016,56.0040503 C147.11047,56.3829161 144.823673,56.7895249 142.555961,57.3244453 C139.394697,58.0700393 136.301101,59.1294763 133.25782,60.2608719 C129.10671,61.8049451 125.151661,63.7929068 121.254735,65.879703 C119.228195,66.9634152 117.164352,67.9725681 115.090098,68.9678494 C113.057485,69.9466583 111.122035,71.0537787 109.183983,72.2051145 C106.377538,73.8748983 103.77149,75.7917685 101.189734,77.7797302 C99.53276,79.0567767 97.8480252,80.4621347 96.3810393,81.9585245 C94.1072545,84.2750678 91.9080769,86.6522989 89.8199426,89.1387682 C89.0808107,90.0196095 88.4214912,90.9507351 87.805548,91.9113376 C85.7182812,91.6451779 83.6101939,91.5896918 81.5142518,91.4241006 C79.3185444,91.2481057 77.1497302,90.7704054 74.9574928,90.5267868 C72.6967209,90.2727647 70.3995129,90.3135123 68.1257282,90.2901041 C62.6663891,90.2320171 57.220063,90.1747971 51.7711342,90.5848738 C47.0917008,90.9368636 42.3602157,91.3400045 37.7180859,92.0405161 C35.4338908,92.3829691 33.1800591,92.9586371 30.9132145,93.392122 C28.6836735,93.8152032 26.4437223,94.2079405 24.2107112,94.6214851 C21.9603496,95.0341627 19.6926375,95.3193958 17.4362032,95.6878579 C16.4333435,95.8508483 15.4296163,96.0164395 14.4336969,96.2167095 C12.4644136,96.6094468 10.567135,97.3879857 8.67245889,98.0555524 C5.92413757,99.0239576 3.65035279,101.946513 2.69520702,104.577766 C1.64810354,107.446569 1.79037775,110.646554 3.07778584,113.413922 C4.36866404,116.176955 6.73440655,118.344379 9.60504899,119.387344 C10.6148489,119.607554 11.6246488,119.827764 12.6344486,120.051443 C14.3174484,120.17802 15.940589,119.95781 17.5004001,119.390812 C19.9069163,118.900974 22.4270784,118.92785 24.8674281,118.744052 C28.14147,118.500434 31.3946913,118.104229 34.6513826,117.690684 C37.7553895,117.297947 40.8186226,116.53588 43.9330398,116.228106 C46.6518652,115.955877 49.3793659,115.759942 52.1051316,115.58308 C56.2041904,115.49725 60.2668131,115.687117 64.367607,115.865713 C68.9455399,116.061648 73.5234729,116.251514 78.1022734,116.427509 C83.0593151,116.617375 88.0206944,116.390229 92.9447701,115.804158 C94.4325766,115.624695 95.8214852,115.062899 97.2346845,114.585198 C98.129971,114.280892 100.430649,112.631048 100.386405,112.66486 C101.385795,111.900193 102.14488,110.877168 102.985512,109.942575 C103.853038,108.976771 104.462908,107.6295 105.157796,106.528448 C106.109472,105.021655 107.172191,103.641439 108.323398,102.308906 C110.041098,100.597508 111.812586,98.9528661 113.758446,97.4963569 C115.65399,96.0779943 117.568619,94.7237875 119.530962,93.4215989 C123.635226,91.1943536 127.916465,89.316497 131.949592,86.9540044 C135.885556,84.6452639 139.955986,82.7830128 144.206862,81.1851875 C146.389557,80.5982489 148.573986,80.1136128 150.814805,79.7304122 C153.380078,79.2865237 155.959232,78.9484055 158.534048,78.5825442 C163.471137,77.8828996 168.368319,77.0506086 173.329699,76.6266604 C174.792347,76.6422658 176.224632,76.7575728 177.662989,76.982985 C182.840383,78.3614669 187.824318,80.3138829 192.665978,82.5948803 C193.880514,83.2719837 195.075097,83.9690274 196.268813,84.699016 C197.86506,85.6700221 199.30949,86.9210595 200.734835,88.1382851 C204.145946,91.4431739 207.406975,94.8755073 210.595999,98.4006064 C212.348401,100.334816 214.025328,102.329713 215.692712,104.334148 C216.818761,105.685753 217.816415,107.133593 218.780236,108.603974 C220.532638,111.850776 222.112402,115.138325 223.56464,118.541181 C224.741873,121.295544 225.736057,124.107994 226.68513,126.941251 C227.479784,129.766706 228.172069,132.655449 228.475703,135.575403 C228.618845,136.959087 228.761987,138.346239 228.907731,139.731657 C229.066488,144.586687 228.963252,149.449521 228.125223,154.240396 C227.294133,157.605973 226.34159,160.933403 225.422013,164.279906 C224.568367,167.397529 223.797137,170.504749 222.508861,173.451579 C219.280798,178.752232 215.420309,183.675754 211.385447,188.382533 C204.580576,195.399786 197.077346,201.709592 188.930413,207.118617 C186.835338,208.364452 184.726383,209.576476 182.580992,210.737348 C180.335836,211.953707 177.908499,212.836282 175.49244,213.66944 C173.205643,214.334406 170.895422,214.905739 168.531414,215.262064 C166.071979,215.633994 163.617749,215.885415 161.144433,216.06141 C157.353346,216.187987 153.557921,216.289423 149.767702,216.21313 C146.497997,216.14724 143.149348,215.683411 139.9022,215.064395 C138.331978,214.617038 136.867595,213.978948 135.389331,213.233354 C136.310643,213.717124 137.232823,214.198292 138.154135,214.682928 C136.579576,213.856706 135.003282,213.033084 133.426988,212.211197 C130.342067,210.527542 127.300522,208.799671 124.182634,207.168034 C125.077053,207.638798 125.971472,208.106095 126.869361,208.57686 C125.228003,207.688216 123.68988,206.724145 122.248052,205.567608 C119.622052,202.927685 117.238959,200.088359 115.140414,197.01235 C114.098516,195.235062 113.115609,193.41876 112.346114,191.511427 C111.948787,189.755813 111.700675,187.972456 111.440417,186.190833 C111.186232,184.450825 110.901684,182.720353 110.735987,180.965606 C110.454041,178.010973 109.882341,175.095354 109.608203,172.141588 C109.573502,170.781312 109.542271,169.421904 109.485015,168.059027 C109.407805,166.216716 109.481544,164.297245 108.974042,162.501751 C108.722459,161.611373 108.509048,160.676779 108.437911,159.758658 C108.071815,157.801041 107.255474,156.054097 105.991489,154.516092 C104.043026,152.169205 101.172384,150.676283 98.1265009,150.431798 C93.0124371,150.022588 88.3087129,153.151482 86.4990543,157.899875 C85.523088,160.453101 85.455421,162.684681 85.7434395,165.356682 C85.8024312,165.898538 85.963791,166.433459 86.1598518,166.964044 C86.1893477,169.238106 86.2578822,171.493961 86.3836734,173.786229 C86.4990543,175.916374 86.8521373,177.995368 87.2043527,180.098636 C87.8853604,184.13178 88.2072124,188.196134 89.0304943,192.209337 C89.7557457,195.758712 90.6102585,199.341031 92.3314294,202.554888 C93.683902,205.084705 95.2558585,207.516556 96.8685887,209.887718 C98.0007097,211.547098 99.3835456,213.030483 100.606757,214.624841 C101.796135,216.17585 103.026286,217.662703 104.368348,219.0854 C106.151113,220.975395 107.994605,222.807302 110.010735,224.445875 C111.427404,225.601545 113.047075,226.559547 114.592138,227.53142 C117.923437,229.627753 121.240855,231.693742 124.670184,233.630552 C126.577873,234.707329 128.516793,235.797977 130.566756,236.577383 C132.281854,237.22761 134.277163,237.556192 136.019155,237.911649 C137.995378,238.31479 139.990687,238.554941 141.993804,238.754344 C146.111948,239.168755 150.164161,238.979756 154.275365,238.763013 C159.183825,238.55234 164.116576,238.456973 168.99207,237.85703 C171.245902,237.583068 173.502336,237.281362 175.729275,236.810598 C178.826341,236.156902 181.821908,235.209304 184.827884,234.209688 C189.175923,232.76705 193.232473,230.897864 197.145881,228.517165 C199.806582,226.898532 202.483766,225.285968 205.024749,223.480937 C206.990562,222.089451 208.901721,220.632941 210.830231,219.186836 C212.693676,217.784946 214.557989,216.39606 216.37719,214.933482 C218.126122,213.531592 219.715429,211.874813 221.321219,210.310799 C225.364756,206.375623 229.217438,202.307801 232.792511,197.939141 C235.592016,194.518945 238.184183,190.956566 240.549925,187.227729 C242.145305,184.710916 243.650462,182.059722 244.765233,179.29929 C245.595455,177.250641 246.272992,175.154308 246.95747,173.054507 C248.322955,168.848837 249.462017,164.622359 250.51259,160.327391 C251.268205,157.225373 251.949213,154.106882 252.430689,150.950246 C252.793315,148.562611 252.918239,146.192315 252.992846,143.781272 C253.02668,142.694092 252.932119,141.603444 252.884405,140.516264 C252.796785,138.515298 252.729118,136.513465 252.514839,134.518567 C252.366493,133.103673 252.240701,131.687911 252.02729,130.279085 C251.440843,126.388125 250.383329,122.615072 249.140165,118.882767 C247.659298,114.430011 246.157611,109.95558 244.164905,105.698758 C241.80003,100.649526 239.149739,95.7355413 235.788077,91.2654451 C233.073589,87.6553829 230.125737,84.2282514 227.02173,80.9433029 C225.418543,79.2457761 223.829236,77.5326438 222.172262,75.8897361 C219.884596,73.6174083 217.596931,71.2540487 215.130556,69.1811239 C213.445821,67.7688302 211.768894,66.2958485 209.888098,65.1479805 C207.065169,63.4270455 204.184984,61.8153487 201.205901,60.372711 C196.891696,58.2763781 192.48293,56.6100622 187.874634,55.2757957 C184.872128,54.405358 181.811497,53.6840392 178.714431,53.2271461 C177.573634,53.0589539 176.424163,53 175.272089,53 C173.300203,53 171.320509,53.1759949 169.358166,53.2913018" id="Fill-67"></path>
            <path d="M252.841281,51.240867 C252.879581,51.2548199 252.917881,51.2687729 252.956181,51.2827258 C253.472363,51.6306775 253.965912,52.0056631 254.452498,52.4015781 C254.921675,52.8855711 255.371701,53.384389 255.792132,53.9137291 C256.012358,54.3541191 256.212564,54.8014856 256.397101,55.2584447 C256.780972,56.8447208 256.981178,58.4327411 257.121321,60.0652363 C257.208367,62.6962396 257.210978,65.3394517 256.857573,67.9477814 C256.783584,68.1710286 256.703502,68.3916597 256.618197,68.6105466 C256.532021,68.7387393 256.444976,68.8651879 256.355319,68.9907645 C256.157725,69.0239028 255.95926,69.0518087 255.759926,69.0779704 C254.435959,69.0657616 253.119827,68.9611145 251.81327,68.7587967 C250.104562,68.2460258 248.508143,67.5440179 246.920428,66.7486997 C245.948997,66.2211038 244.994105,65.6769387 244.101015,65.0237662 C243.625745,64.492682 243.175719,63.9415404 242.716117,63.3886548 C242.254775,62.834897 241.782116,62.2933481 241.339053,61.7273816 C241.268546,61.5826197 241.201521,61.4361137 241.136237,61.2887357 C241.108382,61.1526944 241.081398,61.0166531 241.057895,60.8797398 C241.060507,60.8518339 241.063118,60.823928 241.0666,60.7960221 C241.46527,59.5576977 241.967524,58.3254777 242.49328,57.1176754 C244.012229,55.9351629 245.046332,54.0209924 245.480691,52.1085661 C245.703528,52.0021749 245.928977,51.8992718 246.156166,51.8024732 C247.673374,51.460626 249.222788,51.2748773 250.774814,51.1510449 C251.467699,51.1466846 252.15449,51.1711022 252.841281,51.240867 M248.238301,33.2581296 C246.925651,33.3985312 245.63041,33.6706137 244.33778,33.9296153 C241.546222,34.4886054 239.016672,35.6187945 236.565463,37.0018807 C234.525981,38.1556153 232.953064,39.5727119 232.099145,41.8016958 C231.528995,42.1008122 230.974514,42.4539962 230.431348,42.8507833 C228.43887,44.3053784 226.89816,46.2640238 225.952843,48.5601563 C225.715208,49.1392038 225.504558,49.7182512 225.306964,50.3112516 C224.946594,51.4013259 224.593188,52.487912 224.252839,53.5814745 C223.66441,55.4555302 223.195233,57.4176639 223.042903,59.3797976 C222.916687,61.0009561 223.082944,62.6936234 223.358879,64.2982127 C223.947309,67.6809312 225.480185,70.7191863 227.497035,73.4548367 C228.149878,74.3373608 228.840151,75.1954673 229.513015,76.0605503 C230.468778,77.2910261 231.624745,78.3837166 232.804216,79.3926893 C234.402376,80.7618226 236.242523,81.6303938 238.098339,82.6044842 C239.14637,83.1530096 240.197013,83.6910702 241.251137,84.2195382 C244.290775,85.7351775 247.76216,86.5531693 251.121257,86.8897842 C253.148552,87.0947182 255.23591,86.975246 257.258854,86.842693 C259.285279,86.7092679 261.047085,86.2671338 262.981242,85.6026245 C266.490928,84.3965663 269.411313,81.6539394 271.387252,78.5677211 C273.403232,75.4134822 274.392943,71.9426857 274.783778,68.2434096 C274.923051,66.9178793 274.967445,65.5897327 274.990947,64.2607142 C275.049268,61.3445475 274.814244,58.4048352 274.617521,55.4991331 C274.443429,52.9169652 273.678297,50.4577576 272.814803,48.0325604 C271.815517,45.2149364 270.010188,42.5717242 267.955908,40.4186095 C267.470193,39.9075827 266.96968,39.4244618 266.45698,38.9404688 C265.670957,38.2079389 264.905824,37.4719207 264.086724,36.7873541 C262.947295,35.8368093 261.346523,35.0301543 260.04693,34.4441304 C257.629669,33.352312 255.093155,33 252.523564,33 C251.100366,33 249.667592,33.1081354 248.238301,33.2581296" id="Fill-69"></path>
            <path d="M162.543398,111.291148 C163.370654,111.117066 164.196178,110.960392 165.030363,110.840275 C165.616806,110.868998 166.19805,110.933409 166.781894,111.023932 C168.927562,111.61146 170.983141,112.41485 173.019663,113.333135 C177.394158,115.810327 181.55729,118.744486 185.396451,121.980678 C186.939218,123.508251 188.442138,125.065418 189.904346,126.680032 C191.727773,128.696777 193.57459,130.743986 195.153739,132.967889 C195.509762,133.649421 195.819009,134.34314 196.093606,135.056878 C196.911333,138.163378 197.39296,141.35779 197.86939,144.530442 C198.330228,147.594292 198.817919,150.682514 199.075192,153.77857 C199.068262,154.845695 199.000695,155.898023 198.853435,156.94861 C198.564978,157.909545 198.217618,158.840015 197.810486,159.754818 C196.834238,161.361599 195.697735,162.826502 194.459017,164.239181 C191.436718,167.42663 188.391897,170.551409 184.76583,173.049491 C181.105981,175.229874 177.252961,176.99768 173.257012,178.45388 C171.327903,178.950885 169.402259,179.402629 167.453227,179.830001 C166.248292,180.094606 165.047688,180.349637 163.853148,180.649059 C161.788906,181.171306 159.747187,181.757093 157.639633,182.02518 C155.629965,181.992975 153.609901,181.777113 151.620156,181.444615 C151.040643,181.268792 150.474991,181.064245 149.919733,180.825752 C148.961676,180.258244 148.011414,179.676808 147.042096,179.129319 C145.584219,178.302428 144.094293,177.578245 142.756823,176.589457 C141.253903,174.929581 139.935491,173.093882 138.679448,171.236423 C138.047095,170.11011 137.442462,168.969 136.827434,167.833983 C136.082471,166.467436 135.203241,165.158336 134.31275,163.890146 C133.924676,163.336564 133.506283,162.809094 133.100019,162.27292 C132.925039,161.908218 132.766517,161.537422 132.619257,161.159663 C132.014624,158.877443 131.620487,156.572592 131.407392,154.218998 C131.351953,152.256219 131.338093,150.289088 131.477558,148.331531 C131.637811,146.11111 131.934064,143.935951 132.329934,141.756439 C132.826288,139.825865 133.428322,137.93446 134.069337,136.036962 C134.667907,134.25871 135.299393,132.537035 136.061681,130.849306 C137.385291,128.751613 138.874351,126.814946 140.47429,124.927893 C142.269998,123.140937 144.187846,121.496729 146.051121,119.774184 C147.928256,118.036841 149.818384,116.369132 151.878294,114.873764 C154.301158,113.497643 156.813244,112.35131 159.395495,111.307686 C159.899644,111.406043 160.414189,111.458267 160.935663,111.458267 C161.467533,111.458267 162.005465,111.404302 162.543398,111.291148 M154.564494,90.2210847 C151.559519,90.9522307 148.862925,92.047209 146.175859,93.5225574 C143.645582,94.9134758 141.123968,96.2965605 138.752212,97.9564362 C135.212769,100.424925 132.285756,103.682006 129.207152,106.684057 C125.440755,110.356326 122.013057,114.466411 119.458526,119.09091 C118.063885,121.607271 116.680505,124.204581 115.874905,126.989029 C115.259011,129.124149 114.612798,131.262752 114.098254,133.429207 C113.258871,136.954376 112.555487,140.487378 112.244508,144.098718 C112.010624,146.818755 111.962981,149.558812 112.024484,152.285813 C112.102445,155.692606 112.335463,159.075897 112.965217,162.421761 C113.435583,164.924195 114.270635,167.430112 115.221763,169.77239 C116.208406,172.206062 117.8993,174.294181 119.420411,176.42669 C121.029012,179.17284 122.500748,181.981659 124.432456,184.542412 C125.339405,185.746191 126.303527,186.895135 127.288438,188.033634 C128.760173,189.734419 130.428545,191.335107 132.248508,192.65117 C133.331304,193.430189 134.850683,194.079516 135.963797,194.647025 C136.033962,194.681841 136.103261,194.716658 136.17256,194.752344 C139.261559,196.497521 142.284725,198.547341 145.699429,199.482163 C151.292718,201.018441 157.447329,201.494556 163.141968,200.416986 C165.829034,199.910406 168.48838,199.080903 171.158121,198.475967 C174.081669,197.816195 176.971434,197.115513 179.820486,196.156319 C182.12814,195.381652 184.389018,194.555631 186.61178,193.562491 C188.825015,192.572833 190.926505,191.430852 193.02453,190.220109 C195.575596,188.748242 198.018383,187.078792 200.258471,185.157793 C201.334337,184.239508 202.336572,183.22983 203.36133,182.261062 C205.770334,179.979712 208.118701,177.551262 210.338865,175.093219 C215.167268,169.741926 217.972142,162.527081 217.999861,155.301791 C218.00939,151.609503 217.52603,147.889362 217.136223,144.221446 C216.61908,139.379344 215.901836,134.458905 214.436164,129.807423 C213.803812,127.79503 213.194847,125.907977 212.165758,124.072278 C211.191242,122.337547 210.060803,120.682023 208.83941,119.117893 C208.166344,118.250963 207.422247,117.424942 206.684213,116.611977 C205.086873,114.864189 203.435826,113.17472 201.747531,111.515714 C199.548157,109.350129 197.253496,107.309884 194.865282,105.364513 C193.034058,103.875238 190.976746,102.627937 188.997396,101.349302 C185.528985,99.1123433 182.03372,96.973741 178.217082,95.3861095 C175.810677,94.3825245 173.039586,93.8968346 170.522303,93.4207192 C168.426011,93.0238113 166.217974,92.95766 164.074905,93.1874488 C163.659977,92.7722622 163.211267,92.3901514 162.729639,92.047209 C161.002364,90.8120944 158.698174,90 156.482341,90 C155.830065,90 155.185585,90.0705034 154.564494,90.2210847" id="Fill-71"></path>
            <path d="M230.657927,100.29291 C229.666676,103.034056 229.801376,106.091756 231.022307,108.731152 C232.273459,111.432294 234.479597,113.34814 237.204674,114.435206 C240.402063,115.711857 243.825678,116.823273 247.282968,116.976332 C249.326776,117.064167 251.437933,116.887627 253.468789,116.771964 C254.028311,116.741526 254.581788,116.707609 255.131811,116.616296 C255.944326,116.483239 256.690355,116.226691 257.475239,116.056239 C258.080524,116.070154 258.684945,116.089286 259.29023,116.099722 C261.059458,116.133638 262.844228,115.991015 264.6195,115.85274 C268.490387,115.82926 272.311193,116.257999 276.18208,116.476282 C278.310507,116.595424 280.441524,116.741526 282.573404,116.778921 C287.197228,116.85719 292.439288,116.622383 296.112443,113.344661 C299.764875,110.086941 301.1041,104.912506 299.00244,100.374657 C298.193379,98.6449173 297.016484,97.2221651 295.474347,96.1046611 C294.617795,95.6524415 293.761244,95.2010916 292.908146,94.7488721 C291.073296,94.0827179 289.197862,93.9235714 287.278393,94.2696933 C287.078934,94.2896953 286.877748,94.3088277 286.677425,94.3279601 C285.028219,94.2836078 283.375558,94.097502 281.727215,94.0357567 C279.547844,93.9540093 277.369337,93.9166142 275.189966,93.8418241 C272.937201,93.7670339 270.683573,93.6818079 268.427354,93.7470319 C265.911234,93.8166041 263.421882,94.0261905 260.923031,94.2383858 C260.198589,94.22795 259.476737,94.1966425 258.747114,94.1679439 C256.696399,94.0896752 254.669861,94.2696933 252.645913,94.5488519 C252.30571,94.5384161 251.964643,94.5245016 251.623577,94.5114568 C250.918994,94.4836279 250.213548,94.4531901 249.51242,94.4531901 C248.387332,94.4557991 247.277788,94.3905751 246.173423,94.2488216 C245.677798,94.0792393 245.188217,93.8966122 244.699499,93.699201 C243.503608,93.2226312 242.263681,93 241.036705,93 C236.558806,93 232.224242,95.9533414 230.657927,100.29291" id="Fill-73"></path>
        </g>
    </g>
</svg>