<?xml version="1.0" encoding="UTF-8"?>
<svg width="800px" height="1000px" viewBox="0 0 800 1000" version="1.1" xmlns="http://www.w3.org/2000/svg" xmlns:xlink="http://www.w3.org/1999/xlink">
    <!-- Generator: Sketch 51.1 (57501) - http://www.bohemiancoding.com/sketch -->
    <title>twitter_DL</title>
    <desc>Created with Sketch.</desc>
    <defs></defs>
    <g id="twitter_DL" stroke="none" stroke-width="1" fill="none" fill-rule="evenodd">
        <g id="logo-footer" transform="translate(441.000000, 706.000000)">
            <g>
                <path d="M110.812545,8.25651402 C110.904572,8.56348079 110.810146,8.81874549 110.573746,9.09365441 C110.548096,9.12348237 110.524607,9.14951827 110.482164,9.19539003 C110.410296,9.27306357 110.388406,9.29969141 110.394575,9.28699974 C110.158488,9.77253772 109.949286,10.3963755 109.78094,11.1092981 C109.323962,13.0450464 110.241419,14.6677006 112.137009,15.2172501 C114.194676,15.8138908 116.608374,14.6870388 117.500673,12.7424366 C118.556971,10.4412591 118.361229,8.87677042 116.832238,7.67717368 C114.960938,6.20902274 112.357851,6.27012948 111.072216,7.83985899 L110.795491,8.1777337 C110.794947,8.20051389 110.804056,8.228204 110.812545,8.25651402 Z M110.106083,6.26944954 C110.423589,5.88663707 110.955421,5.49967933 111.419965,5.30848582 C112.37958,4.91358991 113.68037,4.90617957 115.133698,5.23840657 C117.932917,5.87841333 120.108577,8.22064492 119.995807,10.6570534 C119.760531,15.7499925 113.426094,19.0246323 109.732148,15.5763745 C107.943744,13.9068501 107.553768,11.8021869 108.499361,9.2850154 C108.62423,8.95356867 108.851111,8.49010331 109.049811,8.18524994 C109.270059,7.84733807 109.481086,7.64146186 109.750777,7.55562368 C109.778602,7.54676715 109.806094,7.5393618 109.833231,7.53336632 C109.647627,7.16965375 109.747904,6.70130236 110.106083,6.26944954 Z" id="Fill-4" fill="#000000" fill-rule="nonzero"></path>
                <path d="M116,2.36382675 C116.035222,2.23410526 116.077249,2.03952302 116.14169,1.8509661 C116.280178,1.44230796 116.378641,1.03435869 116.377039,0.600890425 C116.376639,0.410561355 116.256963,0.110004457 116.623996,0.0412449782 C116.938196,-0.017590452 117.272408,-0.0501980398 117.512961,0.20711836 C117.655051,0.358460099 117.796741,0.518308165 117.8896,0.694814455 C118.216208,1.3175485 117.776729,2.53572545 117.114308,2.89086461 C116.612389,3.15987721 116.012808,2.911776 116,2.36382675" id="Fill-103" fill="#000000" fill-rule="nonzero"></path>
                <path d="M113.597281,1.30015424 C113.547641,1.6054057 113.484683,1.90995301 113.451993,2.21696486 C113.409214,2.61727733 113.068594,2.79366831 112.724342,2.93802021 C112.426905,3.06335991 112.146418,3.01090032 112.073774,2.6669203 C111.908307,1.88389925 112.059649,1.1040469 112.154086,0.329475719 C112.197269,-0.0278832593 112.773982,-0.106396611 113.167067,0.152380579 C113.512933,0.380527 113.619074,0.676272361 113.597281,1.30015424" id="Fill-107" fill="#000000" fill-rule="nonzero"></path>
                <path d="M112.19066,11.6823452 C110.632914,12.6206952 108.591708,13.9682577 107.051494,14.9237702 C106.603919,15.2015633 106.260092,15.3386205 105.847581,15.6483439 C105.453117,15.9444969 105.00264,16.1407116 104.673147,15.8744932 C104.334372,15.6006913 103.968388,15.4738054 104.253536,15.0032335 C104.507231,14.584149 104.804932,14.5525935 105.343775,14.3418539 C106.408054,13.9255633 108.032176,12.8044553 108.976827,12.2352987 C109.267132,12.0600815 109.780582,11.6912496 110.031699,11.4841022 C110.690685,10.9400907 110.546085,10.7856194 109.803565,10.2635599 C108.494872,9.34277154 106.87805,8.31351987 105.559045,7.40151231 C105.221301,7.16842154 104.87376,6.94291422 104.554064,6.69585398 C103.681603,6.022525 103.837029,5.29651112 105.037953,5.02270928 C105.314335,4.95964705 105.519044,5.02949445 105.664454,5.21269422 C106.875175,6.74015718 109.059218,7.93310366 110.770108,9.0590438 C111.354328,9.44340412 111.803432,9.85804585 112.62433,10.0292717 C113.067264,10.1214703 112.94712,10.4970498 112.994043,10.9392837 C113.057467,11.2214672 112.602656,11.4340876 112.19066,11.6823452 Z" id="chevron" fill="#000000" fill-rule="nonzero" transform="translate(108.500000, 10.500000) rotate(-2.000000) translate(-108.500000, -10.500000) "></path>
                <path d="M4.80555555,7.71270718 L2.78703703,7.71270718 L2.78703703,12.9005525 L2.01851852,12.9005525 L2.01851852,7.71270718 L0,7.71270718 L0,7.09944751 L4.80555555,7.09944751 L4.80555555,7.71270718 Z M9.97657951,10.2403315 L6.8654684,10.2403315 L6.8654684,12.9005525 L6.09694989,12.9005525 L6.09694989,7.09944751 L6.8654684,7.09944751 L6.8654684,9.62707182 L9.97657951,9.62707182 L9.97657951,7.09944751 L10.745098,7.09944751 L10.745098,12.9005525 L9.97657951,12.9005525 L9.97657951,10.2403315 Z M12.6568627,7.09944751 L16.1846405,7.09944751 L16.1846405,7.71270718 L13.4253813,7.71270718 L13.4253813,9.61049724 L15.953159,9.61049724 L15.953159,10.2237569 L13.4253813,10.2237569 L13.4253813,12.2872928 L16.2309368,12.2872928 L16.2309368,12.9005525 L12.6568627,12.9005525 L12.6568627,7.09944751 Z M20.7674291,7.09944751 C20.8847137,7.08287284 21.0158852,7.07044203 21.1609477,7.0621547 C21.3060102,7.05386736 21.4572432,7.04834254 21.6146514,7.04558011 C21.7720596,7.04281768 21.926379,7.04005525 22.0776143,7.03729282 C22.2288497,7.03453039 22.3692805,7.03314917 22.4989106,7.03314917 C23.0174317,7.03314917 23.4665011,7.10497164 23.8461328,7.24861878 C24.2257645,7.39226593 24.539033,7.59254015 24.7859476,7.84944751 C25.0328623,8.10635488 25.2165027,8.41436285 25.3368736,8.77348066 C25.4572445,9.13259848 25.5174291,9.52762215 25.5174291,9.95856354 C25.5174291,10.3508307 25.4603309,10.7278988 25.3461328,11.089779 C25.2319348,11.4516593 25.0513808,11.7720981 24.8044662,12.051105 C24.5575516,12.3301119 24.236567,12.5538666 23.8415032,12.7223757 C23.4464394,12.8908848 22.9680495,12.9751381 22.406318,12.9751381 C22.3075521,12.9751381 22.179467,12.9737569 22.0220588,12.9709945 C21.8646506,12.968232 21.7026152,12.9627072 21.5359477,12.9544199 C21.3692802,12.9461326 21.2149607,12.9392266 21.0729847,12.9337017 C20.9310087,12.9281767 20.8291578,12.9198895 20.7674291,12.9088398 L20.7674291,7.09944751 Z M22.5174291,7.64640884 L22.2535402,7.64640884 C22.1578608,7.64640884 22.0637259,7.64917122 21.9711328,7.65469613 C21.8785398,7.66022104 21.7936641,7.66574581 21.7165032,7.67127072 C21.6393424,7.67679563 21.5791578,7.6823204 21.5359477,7.6878453 L21.5359477,12.3287293 C21.566812,12.3342542 21.6254534,12.3383978 21.7118736,12.3411602 C21.7982938,12.3439227 21.887799,12.3466851 21.9803921,12.3494475 C22.0729851,12.3522099 22.1624904,12.3549724 22.2489106,12.3577348 C22.3353309,12.3604972 22.3939723,12.3618785 22.4248365,12.3618785 C22.8569374,12.3618785 23.2195881,12.2955808 23.5127995,12.1629834 C23.8060109,12.0303861 24.0405762,11.852211 24.2165032,11.628453 C24.3924302,11.404695 24.5174286,11.1477915 24.5915032,10.8577348 C24.6655778,10.5676781 24.7026143,10.2679574 24.7026143,9.95856354 C24.7026143,9.68784397 24.6686642,9.41574724 24.6007625,9.14226519 C24.5328607,8.86878315 24.4155783,8.62154807 24.2489106,8.40055249 C24.0822429,8.17955691 23.8584801,7.99861948 23.5776143,7.85773481 C23.2967486,7.71685014 22.9433571,7.64640884 22.5174291,7.64640884 Z M26.892157,10 C26.892157,9.03314434 27.1205495,8.29143904 27.5773422,7.77486188 C28.0341344,7.25828471 28.6853622,7 29.5310459,7 C29.9878381,7 30.3828957,7.07182247 30.7162311,7.21546961 C31.0495659,7.35911676 31.3257979,7.56215336 31.5449348,7.82458564 C31.7640716,8.08701791 31.9261071,8.40193186 32.0310459,8.76933702 C32.1359847,9.13674217 32.1884533,9.54695907 32.1884533,10 C32.1884533,10.9668557 31.9585171,11.708561 31.4986385,12.2251381 C31.0387594,12.7417153 30.3829019,13 29.5310459,13 C29.080426,13 28.6899981,12.9281775 28.3597496,12.7845304 C28.0295006,12.6408832 27.7548124,12.4378466 27.5356755,12.1754144 C27.3165387,11.9129821 27.1545032,11.5980681 27.0495644,11.230663 C26.9446256,10.8632578 26.892157,10.4530409 26.892157,10 Z M27.7069718,10 C27.7069718,10.3204436 27.7424651,10.624308 27.8134533,10.9116022 C27.884441,11.1988965 27.9940078,11.4516564 28.142157,11.6698895 C28.2903057,11.8881227 28.4801184,12.0621541 28.7116014,12.191989 C28.943084,12.3218238 29.2162295,12.3867403 29.5310459,12.3867403 C30.1051225,12.3867403 30.5557352,12.1919909 30.8828977,11.8024862 C31.2100598,11.4129815 31.3736385,10.8121587 31.3736385,10 C31.3736385,9.68508131 31.3381447,9.38259816 31.267157,9.09254144 C31.1961688,8.80248476 31.0850587,8.54834365 30.9338237,8.3301105 C30.7825881,8.11187735 30.5912321,7.93784595 30.3597496,7.80801105 C30.1282666,7.67817615 29.8520351,7.61325967 29.5310459,7.61325967 C28.9631416,7.61325967 28.5171585,7.80800912 28.1930829,8.19751381 C27.8690068,8.58701851 27.7069718,9.18784125 27.7069718,10 Z M33.5631807,10 C33.5631807,9.03314434 33.7915737,8.29143904 34.2483658,7.77486188 C34.7051585,7.25828471 35.3563864,7 36.2020695,7 C36.6588622,7 37.0539198,7.07182247 37.3872547,7.21546961 C37.7205896,7.35911676 37.9968216,7.56215336 38.2159584,7.82458564 C38.4350953,8.08701791 38.5971308,8.40193186 38.7020695,8.76933702 C38.8070083,9.13674217 38.8594769,9.54695907 38.8594769,10 C38.8594769,10.9668557 38.6295412,11.708561 38.1696621,12.2251381 C37.7097835,12.7417153 37.053926,13 36.2020695,13 C35.7514502,13 35.3610217,12.9281775 35.0307732,12.7845304 C34.7005248,12.6408832 34.425836,12.4378466 34.2066992,12.1754144 C33.9875623,11.9129821 33.8255268,11.5980681 33.7205881,11.230663 C33.6156493,10.8632578 33.5631807,10.4530409 33.5631807,10 Z M34.3779955,10 C34.3779955,10.3204436 34.4134893,10.624308 34.484477,10.9116022 C34.5554651,11.1988965 34.665032,11.4516564 34.8131807,11.6698895 C34.9613298,11.8881227 35.1511426,12.0621541 35.3826251,12.191989 C35.6141076,12.3218238 35.8872532,12.3867403 36.2020695,12.3867403 C36.7761467,12.3867403 37.2267594,12.1919909 37.5539214,11.8024862 C37.8810834,11.4129815 38.0446621,10.8121587 38.0446621,10 C38.0446621,9.68508131 38.0091688,9.38259816 37.9381806,9.09254144 C37.867193,8.80248476 37.7560829,8.54834365 37.6048473,8.3301105 C37.4536122,8.11187735 37.2622558,7.93784595 37.0307732,7.80801105 C36.7992907,7.67817615 36.5230587,7.61325967 36.2020695,7.61325967 C35.6341657,7.61325967 35.1881822,7.80800912 34.8641066,8.19751381 C34.540031,8.58701851 34.3779955,9.18784125 34.3779955,10 Z M40.5027233,7.09944751 C40.6200078,7.08287284 40.7511791,7.07044203 40.8962419,7.0621547 C41.0413041,7.05386736 41.1925371,7.04834254 41.3499456,7.04558011 C41.5073535,7.04281768 41.6616729,7.04005525 41.8129085,7.03729282 C41.9641436,7.03453039 42.1045747,7.03314917 42.2342048,7.03314917 C42.7527259,7.03314917 43.2017954,7.10497164 43.581427,7.24861878 C43.9610587,7.39226593 44.2743267,7.59254015 44.5212419,7.84944751 C44.7681565,8.10635488 44.9517969,8.41436285 45.0721678,8.77348066 C45.1925387,9.13259848 45.2527233,9.52762215 45.2527233,9.95856354 C45.2527233,10.3508307 45.1956251,10.7278988 45.081427,11.089779 C44.967229,11.4516593 44.786675,11.7720981 44.5397604,12.051105 C44.2928452,12.3301119 43.9718612,12.5538666 43.5767974,12.7223757 C43.1817336,12.8908848 42.7033432,12.9751381 42.1416122,12.9751381 C42.0428463,12.9751381 41.9147609,12.9737569 41.757353,12.9709945 C41.5999445,12.968232 41.437909,12.9627072 41.2712419,12.9544199 C41.1045742,12.9461326 40.9502547,12.9392266 40.8082789,12.9337017 C40.6663026,12.9281767 40.5644517,12.9198895 40.5027233,12.9088398 L40.5027233,7.09944751 Z M42.2527233,7.64640884 L41.9888344,7.64640884 C41.8931549,7.64640884 41.7990201,7.64917122 41.706427,7.65469613 C41.6138339,7.66022104 41.5289584,7.66574581 41.4517974,7.67127072 C41.3746364,7.67679563 41.3144517,7.6823204 41.2712419,7.6878453 L41.2712419,12.3287293 C41.3021061,12.3342542 41.3607475,12.3383978 41.4471678,12.3411602 C41.533588,12.3439227 41.6230932,12.3466851 41.7156863,12.3494475 C41.8082794,12.3522099 41.8977846,12.3549724 41.9842048,12.3577348 C42.0706251,12.3604972 42.1292665,12.3618785 42.1601307,12.3618785 C42.5922316,12.3618785 42.9548823,12.2955808 43.2480937,12.1629834 C43.5413051,12.0303861 43.7758705,11.852211 43.9517974,11.628453 C44.1277244,11.404695 44.2527228,11.1477915 44.3267974,10.8577348 C44.400872,10.5676781 44.4379085,10.2679574 44.4379085,9.95856354 C44.4379085,9.68784397 44.4039584,9.41574724 44.3360567,9.14226519 C44.2681549,8.86878315 44.150872,8.62154807 43.9842048,8.40055249 C43.8175371,8.17955691 43.5937743,7.99861948 43.3129085,7.85773481 C43.0320428,7.71685014 42.6786513,7.64640884 42.2527233,7.64640884 Z M50.7293025,12.9005525 L46.8959692,12.9005525 L46.8959692,7.09944751 L47.6644877,7.09944751 L47.6644877,12.2872928 L50.7293025,12.2872928 L50.7293025,12.9005525 Z M52.0206971,7.09944751 L55.5484749,7.09944751 L55.5484749,7.71270718 L52.7892156,7.71270718 L52.7892156,9.61049724 L55.3169934,9.61049724 L55.3169934,10.2237569 L52.7892156,10.2237569 L52.7892156,12.2872928 L55.5947712,12.2872928 L55.5947712,12.9005525 L52.0206971,12.9005525 L52.0206971,7.09944751 Z M63.9645968,12.9005525 L60.1312634,12.9005525 L60.1312634,7.09944751 L60.8997819,7.09944751 L60.8997819,12.2872928 L63.9645968,12.2872928 L63.9645968,12.9005525 Z M65.4319172,7.09944751 L66.2004357,7.09944751 L66.2004357,12.9005525 L65.4319172,12.9005525 L65.4319172,7.09944751 Z M72.1955335,8.42541436 C72.1955335,8.5635366 72.1708426,8.70441915 72.1214594,8.8480663 C72.0720767,8.99171344 71.9980031,9.12569001 71.8992372,9.25 C71.8004712,9.37431004 71.6739296,9.48342495 71.5196075,9.57734807 C71.365286,9.67127118 71.1831888,9.74309369 70.9733113,9.79281768 L70.9733113,9.82596685 C71.1584975,9.8535913 71.3359651,9.90055216 71.5057187,9.96685083 C71.6754728,10.0331495 71.8251626,10.1243088 71.9547927,10.2403315 C72.0844234,10.3563542 72.1893606,10.4972367 72.2696075,10.6629834 C72.349855,10.8287301 72.3899779,11.0248607 72.3899779,11.2513812 C72.3899779,11.5497252 72.3205345,11.8080099 72.1816446,12.0262431 C72.0427552,12.2444762 71.8606585,12.4226512 71.6353483,12.5607735 C71.4100386,12.6988957 71.1523251,12.8011047 70.8622001,12.8674033 C70.5720757,12.933702 70.2757819,12.9668508 69.9733113,12.9668508 L69.6029409,12.9668508 C69.4609651,12.9668508 69.3128185,12.9627072 69.1584964,12.9544199 C69.0041749,12.9461326 68.8498555,12.935083 68.6955335,12.9212707 C68.541212,12.9074585 68.4054111,12.8867405 68.2881261,12.859116 L68.2881261,7.14917127 C68.5165227,7.11602192 68.7819517,7.08839788 69.0844224,7.06629834 C69.386893,7.0441988 69.7171369,7.03314917 70.0751631,7.03314917 C70.3159054,7.03314917 70.5612732,7.05110479 70.8112742,7.08701657 C71.0612758,7.12292836 71.288125,7.19198844 71.4918298,7.2941989 C71.6955345,7.39640935 71.8637428,7.53867311 71.9964594,7.72099448 C72.1291765,7.90331584 72.1955335,8.13812012 72.1955335,8.42541436 Z M70.0473853,12.3701657 C70.2449172,12.3701657 70.4362737,12.3494477 70.6214594,12.308011 C70.8066456,12.2665744 70.9702243,12.2002767 71.1122001,12.109116 C71.2541765,12.0179553 71.3668298,11.906078 71.4501631,11.7734807 C71.533497,11.6408833 71.5751631,11.4834263 71.5751631,11.301105 C71.5751631,11.0745845 71.5242377,10.8922659 71.4223853,10.7541436 C71.320533,10.6160214 71.1878185,10.5082877 71.0242372,10.4309392 C70.8606564,10.3535908 70.677016,10.3011051 70.4733113,10.2734807 C70.2696065,10.2458562 70.0659049,10.2320442 69.8622001,10.2320442 L69.0566446,10.2320442 L69.0566446,12.3121547 C69.099855,12.3232045 69.1615829,12.3314917 69.2418298,12.3370166 C69.3220772,12.3425415 69.4084964,12.3480663 69.501089,12.3535912 C69.5936821,12.3591161 69.6893601,12.3632597 69.7881261,12.3660221 C69.886892,12.3687845 69.9733113,12.3701657 70.0473853,12.3701657 Z M69.5381261,9.6519337 C69.6430649,9.6519337 69.769607,9.64917132 69.9177557,9.64364641 C70.0659049,9.6381215 70.1893601,9.6298343 70.2881261,9.61878453 C70.4362752,9.57458541 70.5751626,9.52071855 70.7047927,9.45718232 C70.8344234,9.39364609 70.9501626,9.31906119 71.052015,9.23342541 C71.1538673,9.14778964 71.2341137,9.04834309 71.2927557,8.93508287 C71.3513982,8.82182265 71.3807187,8.69889567 71.3807187,8.56629834 C71.3807187,8.38397698 71.3421389,8.23342601 71.2649779,8.11464088 C71.1878174,7.99585576 71.0844234,7.90055285 70.9547927,7.82872928 C70.8251626,7.75690571 70.677016,7.70580124 70.5103483,7.67541436 C70.3436811,7.64502749 70.1739296,7.62983425 70.001089,7.62983425 C69.7973843,7.62983425 69.610658,7.63397785 69.4409038,7.64226519 C69.2711502,7.65055253 69.1430649,7.66298333 69.0566446,7.67955801 L69.0566446,9.6519337 L69.5381261,9.6519337 Z M74.0332243,7.15745856 C74.2677932,7.11878435 74.5378524,7.08839788 74.8434095,7.06629834 C75.1489666,7.0441988 75.428285,7.03314917 75.6813725,7.03314917 C75.9653246,7.03314917 76.2353838,7.0607732 76.4915576,7.1160221 C76.747732,7.17127099 76.9730381,7.26243029 77.1674836,7.38950276 C77.361929,7.51657523 77.5177917,7.68231943 77.6350762,7.88674033 C77.7523606,8.09116123 77.8110021,8.33977753 77.8110021,8.63259669 C77.8110021,9.08563762 77.6721147,9.45303725 77.3943354,9.73480663 C77.1165561,10.016576 76.7647078,10.2044194 76.3387799,10.2983425 L76.7832243,10.6049724 L78.3943354,12.9005525 L77.4961873,12.9005525 L75.7091502,10.3977901 L74.8017428,10.2734807 L74.8017428,12.9005525 L74.0332243,12.9005525 L74.0332243,7.15745856 Z M75.699891,7.62983425 L75.449891,7.62983425 C75.3634707,7.62983425 75.2801384,7.63259664 75.199891,7.63812155 C75.1196436,7.64364645 75.0440273,7.64917122 74.9730391,7.65469613 C74.902051,7.66022104 74.8449527,7.66850824 74.8017428,7.67955801 L74.8017428,9.81767956 L75.5239651,9.81767956 C75.949893,9.81767956 76.3017413,9.72375783 76.5795206,9.5359116 C76.8572999,9.34806538 76.9961873,9.0552506 76.9961873,8.65745856 C76.9961873,8.35911455 76.8819908,8.11326064 76.6535947,7.9198895 C76.4251986,7.72651837 76.1073004,7.62983425 75.699891,7.62983425 Z M82.722767,11.2928177 L80.3338781,11.2928177 L79.68573,12.9005525 L78.9264707,12.9005525 L81.3801744,7.00828729 L81.7320263,7.00828729 L84.1949892,12.9005525 L83.3894337,12.9005525 L82.722767,11.2928177 Z M80.5838781,10.6961326 L82.4912855,10.6961326 L81.7690633,8.93093923 L81.5375818,8.05248619 L81.5283226,8.05248619 L81.2968411,8.94751381 L80.5838781,10.6961326 Z M85.3937907,7.15745856 C85.6283596,7.11878435 85.8984187,7.08839788 86.2039758,7.06629834 C86.5095329,7.0441988 86.7888514,7.03314917 87.0419388,7.03314917 C87.325891,7.03314917 87.5959501,7.0607732 87.852124,7.1160221 C88.1082984,7.17127099 88.3336044,7.26243029 88.5280499,7.38950276 C88.7224954,7.51657523 88.878358,7.68231943 88.9956425,7.88674033 C89.112927,8.09116123 89.1715684,8.33977753 89.1715684,8.63259669 C89.1715684,9.08563762 89.0326811,9.45303725 88.7549018,9.73480663 C88.477123,10.016576 88.1252742,10.2044194 87.6993462,10.2983425 L88.1437906,10.6049724 L89.7549018,12.9005525 L88.8567536,12.9005525 L87.0697166,10.3977901 L86.1623092,10.2734807 L86.1623092,12.9005525 L85.3937907,12.9005525 L85.3937907,7.15745856 Z M87.0604573,7.62983425 L86.8104573,7.62983425 C86.7240371,7.62983425 86.6407047,7.63259664 86.5604573,7.63812155 C86.4802099,7.64364645 86.4045936,7.64917122 86.3336055,7.65469613 C86.2626178,7.66022104 86.2055196,7.66850824 86.1623092,7.67955801 L86.1623092,9.81767956 L86.8845314,9.81767956 C87.3104594,9.81767956 87.6623081,9.72375783 87.9400869,9.5359116 C88.2178663,9.34806538 88.3567536,9.0552506 88.3567536,8.65745856 C88.3567536,8.35911455 88.2425571,8.11326064 88.014161,7.9198895 C87.7857649,7.72651837 87.4678668,7.62983425 87.0604573,7.62983425 Z M92.1111111,10.5966851 L89.9722222,7.09944751 L90.8703704,7.09944751 L92.3888889,9.63535912 L92.5462963,10.140884 L92.5555556,10.140884 L92.7222222,9.61878453 L94.1759259,7.09944751 L95,7.09944751 L92.8796296,10.5883978 L92.8796296,12.9005525 L92.1111111,12.9005525 L92.1111111,10.5966851 Z" id="the-Doodle-Library" fill="#666666" fill-rule="nonzero" opacity="0.595278533"></path>
            </g>
        </g>
        <g id="twitter" transform="translate(213.000000, 283.000000)" fill="#2C2C2C">
            <path d="M225.776861,11.117461 C220.917861,12.898461 216.140861,15.089461 211.515861,17.413461 C203.358861,21.507461 196.890861,28.499461 192.210861,36.222461 C188.999861,41.515461 186.440861,47.144461 183.999861,52.820461 C182.038861,57.370461 180.495861,62.175461 179.409861,66.999461 C178.015861,73.203461 177.284861,79.406461 176.878861,85.734461 C176.589861,90.195461 176.636861,94.589461 177.046861,99.042461 C177.268861,101.495461 178.198861,103.906461 178.979861,106.206461 C179.331861,107.237461 179.815861,108.208461 180.286861,109.184461 C180.387861,110.237461 180.690861,111.151461 181.140861,112.316461 C181.811861,113.749461 182.792861,114.925461 184.081861,115.851461 C186.069861,117.261461 188.522861,117.777461 190.913861,117.370461 C194.151861,116.824461 196.952861,114.413461 198.011861,111.312461 C198.667861,109.402461 198.640861,108.167461 198.440861,106.199461 C198.335861,105.167461 197.854861,104.011461 197.558861,103.120461 C197.297861,102.341461 197.024861,101.564461 196.757861,100.786461 C196.102861,98.413461 195.706861,96.050461 195.435861,93.597461 C195.209861,85.803461 195.522861,77.906461 197.020861,70.251461 C198.919861,62.414461 201.966861,54.859461 205.556861,47.646461 C207.393861,44.531461 209.282861,41.496461 211.654861,38.751461 C213.186861,37.192461 214.809861,35.746461 216.578861,34.457461 C219.152861,33.038461 221.920861,32.035461 224.655861,30.960461 C226.775861,30.132461 228.879861,29.270461 231.009861,28.464461 C232.052861,28.170461 233.101861,27.917461 234.186861,27.745461 C235.418861,27.551461 236.654861,27.441461 237.895861,27.357461 C241.885861,27.213461 245.899861,27.090461 249.849861,27.704461 C252.858861,28.535461 255.747861,29.755461 258.647861,30.906461 C261.112861,31.886461 263.608861,32.792461 266.081861,33.753461 C270.526861,35.474461 274.897861,37.374461 279.214861,39.393461 C282.866861,41.440461 286.378861,43.653461 289.677861,46.253461 C290.106861,46.713461 290.513861,47.187461 290.899861,47.686461 C291.132861,48.167461 291.342861,48.657461 291.528861,49.159461 C292.124861,51.052461 292.394861,51.917461 293.768861,53.730461 C294.858861,55.163461 296.628861,56.331461 298.288861,56.968461 C300.186861,57.699461 301.913861,57.718461 303.890861,57.480461 C305.335861,57.304461 306.776861,56.995461 308.202861,56.710461 C313.393861,55.675461 318.620861,54.249461 323.616861,52.511461 C328.440861,50.831461 332.760705,47.4062663 337.154705,44.8352663 C339.853705,43.2572663 346.000822,41.0558115 347.324822,40.0868115 C350.211822,37.9738115 352.664822,36.1688115 354.938822,33.4388115 C356.598822,31.4428115 357.086822,28.3018115 356.633822,25.8258115 C356.168822,23.2668115 355.695822,21.9468115 353.574822,20.4428115 C351.383822,18.8838115 348.606822,19.2668115 345.961822,19.7468115 C345.149822,20.0088115 344.332822,20.2668115 343.520822,20.5288115 C341.926822,21.2768115 332.824,25.576461 327.046,28.464461 C324.109,29.933461 313.249861,34.113461 310.163861,35.226461 C309.188861,35.576461 308.211861,35.929461 307.243861,36.305461 C307.063861,36.032461 306.878861,35.761461 306.686861,35.488461 C304.612861,32.531461 301.663861,30.242461 298.733861,28.167461 C293.737861,24.632461 288.526861,21.425461 282.925861,18.921461 C280.460861,17.820461 277.995861,16.726461 275.464861,15.777461 C273.065861,14.874461 270.624861,14.128461 268.198861,13.296461 C265.503861,12.370461 262.835861,11.382461 260.147861,10.429461 C256.835861,9.25746102 253.358861,8.42946102 249.854861,8.13246102 C249.190861,8.07646102 248.524861,8.05546102 247.858861,8.05546102 C246.917861,8.05546102 245.975861,8.09746102 245.038861,8.14046102 C238.550861,8.44546102 231.929861,8.86346102 225.776861,11.117461 Z" id="Fill-2" transform="translate(266.744408, 62.780418) rotate(5.000000) translate(-266.744408, -62.780418) "></path>
            <path d="M361.58221,58.5647902 C358.087696,58.8164677 354.541764,58.9215638 351.065012,59.3428702 C349.534643,59.5263274 347.982772,59.6452519 346.46736,59.9291958 C344.645314,60.2749067 342.855988,60.6390555 341.059183,61.0889405 C338.148958,61.8163162 335.304172,62.702258 332.316353,63.0912979 C330.618644,63.3143967 328.949915,63.5845121 327.266228,63.8905815 C323.735254,64.5285333 320.51372,66.0367546 317.467939,67.844592 C316.923849,68.1838496 316.383499,68.5221853 315.839409,68.860521 C314.795168,69.7215715 314.0398,70.7799077 313.572369,72.0401391 C312.888985,73.8839304 312.980601,75.9471329 313.823847,77.7263915 C315.503794,81.2775336 320.193062,83.1895452 323.840894,81.3208627 C325.162789,80.6441913 326.497772,79.9914892 327.885107,79.4623211 C331.101967,78.6759441 334.445034,78.5560976 337.717986,78.1154315 C340.526312,77.7374543 343.290699,76.7510259 346.011148,75.9803212 C351.938173,74.3015492 358.178378,73.8009598 364.29518,73.2902296 C366.164904,73.1353512 368.074827,71.7202413 369.122808,70.2645681 C370.302604,68.6300471 370.770035,66.5594694 370.405438,64.5893784 C370.054865,62.6810544 368.94051,60.9525 367.337221,59.8287092 C366.73517,59.5189522 366.135923,59.2055077 365.533872,58.8957508 C364.683148,58.5942909 363.82214,58.4431 362.947109,58.4431 C362.495571,58.4431 362.040293,58.4836634 361.58221,58.5647902" id="Fill-4"></path>
            <path d="M311.7705,80.1254 C311.6505,82.1724 311.7885,84.2264 311.9235,86.2724 C312.0385,90.1654 311.8125,94.0154 311.5715,97.9064 C311.3175,101.9734 311.1065,106.0354 310.7785,110.0944 C310.4345,114.3284 309.9465,118.5434 309.4385,122.7624 C308.9885,126.5084 308.2685,130.2104 307.5535,133.9104 C305.4845,142.8234 303.2435,151.7034 300.2075,160.3484 C297.0355,169.3864 293.0185,178.0684 288.8045,186.6644 C284.4275,194.8924 279.7615,203.0004 274.5825,210.7504 C271.5085,215.3554 268.3215,219.8444 264.9735,224.2584 C262.0865,228.0664 258.7865,231.5794 255.5805,235.1234 C254.0745,236.7294 252.5725,238.3394 251.0085,239.8874 C249.9035,240.9774 248.8015,242.0664 247.6965,243.1564 C246.5475,244.2934 245.2545,245.3094 244.0435,246.3754 C239.6795,250.2184 234.9165,253.4974 230.1225,256.7664 C226.3925,259.1124 222.6525,261.4384 218.8955,263.7504 C214.4575,266.4774 210.0435,269.2894 205.4615,271.7704 C203.0325,273.0864 200.6145,274.3954 198.1255,275.6094 C195.6065,276.8404 193.0755,277.9964 190.5085,279.1334 C185.9495,281.1494 181.1555,282.6524 176.4325,284.2244 C168.3035,286.8054 160.2125,289.4754 152.1375,292.2154 C148.3255,293.3964 144.5045,294.5584 140.5945,295.3714 C135.9465,296.3404 131.2905,297.0274 126.5795,297.6334 C121.6725,298.2664 116.7705,298.9264 111.8685,299.5984 C107.7835,300.1614 103.6865,300.4994 99.5765,300.7674 C96.6685,300.8444 93.8175,300.7624 90.9075,300.4494 C87.3605,300.0664 83.8215,299.6524 80.2825,299.2074 C73.9405,298.4144 67.5695,297.8314 61.2555,296.8614 C54.6145,295.2544 48.1355,292.9704 41.5985,290.9844 C34.1665,288.7234 26.4655,287.4824 18.8645,285.9174 C16.3695,285.3574 13.8805,284.7854 11.4065,284.1454 C10.0165,283.6414 8.5905,283.5204 7.1335,283.7814 C5.0435,284.1604 3.1455,285.3634 1.9145,287.0984 C0.6415,288.8874 0.1335,291.1604 0.5275,293.3204 C0.8715,295.2074 2.0865,297.5784 3.8485,298.5434 C6.2545,299.8554 8.5905,300.9574 11.1565,301.8834 C13.0595,302.5664 15.1215,302.9414 17.0905,303.3794 C21.0055,304.2404 24.9355,305.0214 28.8585,305.8404 C33.8255,307.1464 38.7405,308.6514 43.6485,310.1604 C49.3755,311.9184 55.0245,313.7974 60.9655,314.7234 C66.4155,315.5744 71.9305,316.0274 77.3995,316.7234 C82.6185,317.3874 87.8335,318.0624 93.0635,318.6294 C96.2975,318.9774 99.6225,318.6994 102.8525,318.5084 C105.4775,318.3524 108.1145,318.1914 110.7315,317.8754 C116.1065,317.2274 121.4695,316.4734 126.8445,315.8094 C132.2505,315.1454 137.6535,314.5434 142.9895,313.4574 C148.7235,312.2894 154.3725,310.5824 159.8995,308.6764 C165.2565,306.8294 170.6215,305.0124 176.0135,303.2614 C181.3745,301.5984 186.7735,300.0024 192.0435,298.0864 C194.8405,297.0704 197.5985,296.0474 200.3365,294.8914 C202.9615,293.7814 205.5205,292.5514 208.0985,291.3324 C210.2745,290.3054 212.4655,289.1524 214.5435,287.9414 C216.7435,286.6604 218.9695,285.4144 221.1415,284.0824 C226.4505,280.8124 231.7705,277.5594 237.0365,274.2114 C241.7545,271.2154 246.4185,268.1684 250.8325,264.7344 C251.8835,263.9144 252.9385,263.0984 253.9895,262.2774 C255.1415,261.3834 256.1845,260.3094 257.2705,259.3364 C259.3565,257.4654 261.3015,255.5004 263.2705,253.5004 C267.4695,249.2344 271.4115,244.6874 275.4035,240.2234 C278.9775,236.2304 282.1965,231.8954 285.3095,227.5394 C288.3055,223.3404 291.1685,219.0474 293.9075,214.6764 C296.8055,210.0554 299.8055,205.4454 302.3915,200.6454 C305.3685,195.1214 308.2275,189.5634 310.8755,183.8794 C312.0595,181.3364 313.1805,178.7704 314.3015,176.1994 C315.2625,173.9964 316.2115,171.7504 317.0125,169.4844 C317.9075,166.9654 318.8325,164.4614 319.6105,161.9024 C320.4585,159.1254 321.2545,156.3524 321.9975,153.5474 C322.7115,150.8524 323.3525,148.1414 324.0005,145.4344 C324.7395,142.3674 325.4815,139.2274 326.0205,136.1174 C326.4815,133.4734 326.9775,130.8404 327.3175,128.1764 C327.6885,125.2734 327.9855,122.3754 328.2545,119.4574 C328.7395,114.1764 328.9115,108.8634 329.0865,103.5664 C329.2005,100.2664 329.2905,96.9654 329.3875,93.6644 C329.4995,89.8214 329.0545,86.0084 328.6385,82.1974 C328.6415,81.9594 328.6485,81.7214 328.6615,81.4804 C328.9115,76.8714 325.5865,72.7344 320.8915,72.3554 C320.6755,72.3384 320.4605,72.3304 320.2485,72.3304 C315.9675,72.3294 312.0195,75.7314 311.7705,80.1254" id="Fill-6"></path>
            <path d="M26.5101,31.4704 C26.3381,32.4344 26.1461,33.3764 26.0881,34.3564 C25.9941,35.9544 26.2711,37.6654 26.5881,39.2354 C26.8421,40.5014 27.0761,41.7744 27.4001,43.0204 C28.4511,47.0634 29.7321,51.0524 31.7911,54.7044 C33.9001,58.4584 36.6151,61.7474 39.3461,65.0444 C41.7791,67.9814 44.2791,70.8954 47.0601,73.5054 C49.4551,75.7554 51.8921,77.8374 54.6271,79.6614 C55.8101,80.4464 56.9901,81.2354 58.1621,82.0404 C60.4161,83.5834 62.6191,85.1924 64.8421,86.7824 C66.9981,88.3254 69.2011,89.6854 71.5291,90.9424 C74.4081,92.5014 77.4351,93.6964 80.3491,95.1694 C80.7741,95.3864 81.1991,95.6014 81.6251,95.8174 C86.7701,98.7244 91.8531,101.6974 97.1701,104.3024 C99.5371,105.4584 102.1271,106.2554 104.6111,107.1184 C107.0961,107.9814 109.5491,108.8954 111.9981,109.8604 C116.6351,111.6854 121.0841,113.9504 125.7401,115.7274 C128.8381,116.9074 132.2241,117.4744 135.4511,118.1614 C137.9431,118.6924 140.4711,119.0444 143.0021,119.3604 C145.9431,119.7244 148.8651,119.7984 151.8221,119.6814 C155.2881,119.5474 158.7291,119.1214 162.1831,118.8334 C167.6351,118.7444 173.0871,119.0414 178.4901,118.0524 C181.7091,117.4584 184.8061,116.6924 187.9041,115.6104 C191.2241,114.4504 194.6311,113.1734 196.5991,109.9974 C197.6661,108.4774 198.2791,106.7944 198.4391,104.9464 C198.5721,103.1734 198.2671,101.4774 197.5211,99.8604 C196.0491,96.7044 192.7241,94.1814 189.1621,94.0524 C185.9201,93.9354 182.9081,94.5794 179.7561,95.1854 C177.2111,95.6754 174.7071,96.1964 172.1441,96.4904 C171.0501,96.4784 169.9571,96.4434 168.8611,96.4074 C166.3731,96.3294 163.8691,96.4314 161.3891,96.5834 C158.2591,96.7714 155.1451,97.1374 152.0241,97.4404 C148.8271,97.4504 145.6641,97.2074 142.4711,96.8724 C139.5821,96.5714 136.6991,96.2544 133.8421,95.7494 C128.5571,94.2584 123.5861,91.7774 118.4281,89.9114 C115.4321,88.8254 112.4001,87.8524 109.3651,86.8764 C106.5211,85.9574 103.8141,84.8154 101.1001,83.5774 C98.4101,82.1384 95.7331,80.6704 93.0451,79.2274 C89.4221,77.2894 85.7031,75.5864 81.9901,73.8384 C78.8491,71.9894 75.9061,69.8934 72.9241,67.7904 C68.5741,64.7214 63.9581,62.1164 59.9231,58.6234 C57.9631,56.7124 56.0951,54.6964 54.2791,52.6494 C52.2711,50.3814 50.2451,48.1254 48.5061,45.6454 C47.3011,43.5094 46.3581,41.2984 45.5261,38.9784 C45.0521,37.4844 44.5921,35.9684 44.2891,34.4494 C44.3381,33.9384 44.4121,33.4314 44.4981,32.9114 C44.8691,30.7004 43.8341,28.0994 42.4471,26.4274 C40.9081,24.5714 38.6351,23.3924 36.2241,23.1964 C35.9881,23.1774 35.7521,23.1674 35.5151,23.1674 C33.4241,23.1674 31.3581,23.9064 29.7441,25.2474 C27.7361,26.9114 26.9591,28.9894 26.5101,31.4704 Z" id="Fill-8" transform="translate(112.269439, 71.450001) rotate(2.000000) translate(-112.269439, -71.450001) "></path>
            <path d="M29.8398,30.3505 C28.0668,31.1785 26.0468,32.9985 25.5858,34.9955 C24.9608,37.6865 24.1448,40.2685 23.2778,42.8855 C22.1878,46.1825 21.2268,49.4915 20.5038,52.8895 C19.2698,58.7335 18.5668,64.6045 18.9178,70.5845 C19.2418,76.1555 19.7888,81.6945 20.3828,87.2415 C20.7418,90.6275 21.2698,94.0385 22.0238,97.3545 C22.9258,101.3305 24.3788,105.1745 26.1948,108.8115 C26.8518,110.1235 27.6168,111.3895 28.3238,112.6745 C29.8708,115.4795 31.5268,118.2175 32.9728,121.0775 C34.6208,124.3275 36.2148,127.6045 37.7698,130.8975 C39.9028,135.4135 45.4058,137.4485 49.9448,135.3305 C52.1368,134.3075 53.8558,132.4325 54.6838,130.1595 C55.5348,127.8155 55.3318,125.4205 54.3788,123.1555 C52.5268,118.7765 50.5508,114.4445 48.2538,110.2805 C47.2458,108.4485 46.1518,106.6635 45.1208,104.8425 C44.4378,103.6315 43.7538,102.4245 43.0698,101.2175 C41.9438,99.2255 41.0458,97.1205 40.2878,94.9665 C38.8608,89.9325 38.1118,84.7365 37.3748,79.5655 C36.8768,76.0515 36.5278,72.5255 36.2528,68.9905 C36.2708,66.1225 36.4198,63.2915 36.6718,60.4245 C36.8798,58.0785 37.3138,55.7515 37.7988,53.4435 C38.3258,51.3845 38.8828,49.3445 39.4768,47.3035 C40.3168,44.4015 40.8908,41.4245 41.5278,38.4715 C41.6368,37.0265 41.3908,35.6475 40.7808,34.3305 C39.8628,32.3625 38.1798,30.8195 36.1368,30.0775 C35.2308,29.7465 34.2768,29.5815 33.3238,29.5815 C32.1298,29.5815 30.9378,29.8395 29.8398,30.3505" id="Fill-10"></path>
            <path d="M14.918,126.1425 C13.238,127.5335 11.715,129.9745 11.75,132.2365 C11.773,133.7875 11.773,135.3375 11.848,136.8885 C12.004,140.2245 12.52,143.3335 13.371,146.5645 C14.207,149.7325 15.203,152.8655 16.41,155.9125 C17.703,159.1775 19.566,162.1585 21.449,165.1115 C23.469,168.2795 25.762,171.2285 28.207,174.0765 C30.145,176.3335 32.059,178.5955 34.098,180.7605 C38.496,185.4285 43.238,189.7645 48.203,193.8225 C52.934,197.6895 57.969,201.2285 63.324,204.1825 C66.219,205.7795 69.156,207.3425 72.313,208.3385 C75.805,209.4395 79.457,210.0375 83.063,210.6195 C85.297,210.9755 87.551,211.3425 89.813,211.4355 C92.594,211.5495 95.223,210.8385 97.391,209.0375 C99.563,207.2365 100.941,204.5805 101.168,201.7675 C101.387,199.0455 100.516,196.2955 98.77,194.1895 C96.883,191.9125 94.371,190.8225 91.5,190.4125 C88.809,190.0315 86.117,189.4855 83.446,188.9245 C81.908,188.5525 80.385,188.1495 78.879,187.6545 C77.35,187.1505 75.877,186.4835 74.435,185.7675 C66.176,181.2305 58.533,175.5635 51.541,169.2535 C48.939,166.7745 46.462,164.2005 43.988,161.5915 C40.806,158.2295 37.816,154.7355 35.232,150.8985 C33.346,147.6775 31.865,144.2995 30.658,140.7735 C30.05,138.6455 29.602,136.5305 29.402,134.3155 C29.394,134.0945 29.386,133.8725 29.379,133.6505 C29.34,132.8885 29.301,132.1265 29.262,131.3615 C28.981,129.8455 28.348,128.4905 27.367,127.2985 C25.859,125.4745 23.633,124.3185 21.273,124.1305 C21.042,124.1125 20.81,124.1025 20.578,124.1025 C18.525,124.1025 16.501,124.8265 14.918,126.1425" id="Fill-12"></path>
            <path d="M49.7109,218.7113 C46.1409,221.6683 45.2849,227.6333 48.5509,231.1803 C51.4139,234.2853 53.8129,237.8403 56.3089,241.2463 C57.9529,243.4883 59.5429,245.7733 61.2379,247.9733 C62.3519,249.4143 63.7889,250.9223 65.2189,252.0123 C66.7969,253.2153 68.5629,254.1063 70.3629,254.9413 C71.9139,255.6603 73.6519,256.1173 75.2729,256.6603 C77.1909,257.3013 79.0939,258.0433 80.9259,258.8993 C82.1329,259.4613 83.3399,260.0243 84.5469,260.5823 C85.8629,261.1883 87.1329,261.7463 88.5269,262.1453 C90.8519,262.8053 93.2849,263.2813 95.6949,263.4813 C97.7659,263.6523 99.8629,263.4813 101.9219,263.3243 C103.8669,263.1803 105.7969,262.4103 107.5779,261.6643 C109.3279,260.9303 110.9529,259.7153 112.5039,258.6763 C113.8869,257.7503 115.0159,256.5743 116.1679,255.3873 C117.1169,254.4103 118.0979,253.4653 119.0629,252.5043 C120.6329,250.9413 122.2579,249.3203 123.4879,247.4843 C126.6599,242.7663 125.7539,236.2853 121.0309,232.9303 C118.7539,231.3133 115.8629,230.6683 113.1169,231.1683 C110.6129,231.6253 107.8319,233.1563 106.4769,235.3913 C105.9079,236.3273 105.2109,237.1423 104.4939,237.9573 C103.1939,239.3303 101.8989,240.7073 100.6129,242.0943 L102.4299,240.1373 C101.4449,241.1933 100.4219,242.1173 99.2919,242.9593 C99.1229,243.0463 98.9529,243.1313 98.7809,243.2123 C98.6009,243.2443 98.4189,243.2733 98.2349,243.3003 C97.1139,243.2813 96.0049,243.1943 94.8899,243.0343 C91.6989,242.0863 88.7259,240.5113 85.5739,239.4183 C84.3829,239.0043 83.1949,238.5783 81.9839,238.2273 C80.2679,237.7313 78.5199,237.2863 76.8589,236.6243 C76.7229,236.5303 76.5869,236.4353 76.4529,236.3363 C75.0229,234.8083 73.7199,233.1663 72.3869,231.5473 C71.1909,230.0983 69.9489,228.6843 68.7109,227.2703 C66.5389,224.7893 64.4219,222.2813 62.1799,219.8673 C60.5239,218.0903 58.5469,216.8953 56.0739,216.6953 C55.8429,216.6773 55.6109,216.6683 55.3799,216.6683 C53.3239,216.6683 51.2979,217.3953 49.7109,218.7113" id="Fill-14"></path>
            <path d="M116.7646,235.7318 C114.8736,236.0758 113.1596,237.1658 112.0456,238.7318 C111.0866,240.0818 110.4546,242.0278 110.6776,243.7478 C110.3066,244.2618 109.9116,244.7558 109.4956,245.2408 C105.3556,249.3908 100.3956,252.6618 95.5316,255.8958 C90.4446,258.9658 85.1616,261.5038 79.5326,263.4228 C73.6746,265.1948 67.6606,266.4128 61.5496,266.8518 C58.2626,266.9218 54.9926,266.7308 51.7566,266.1498 C49.6496,265.6018 47.5716,264.9278 45.5886,264.0308 C43.9486,262.9948 42.4566,261.7498 41.0006,260.4688 C40.6316,260.1268 40.2616,259.7848 39.8936,259.4428 C38.7336,258.6268 37.4486,258.1578 36.0346,258.0368 C34.0376,257.8768 32.0226,258.5168 30.4836,259.7938 C28.8896,261.1148 27.8816,263.0598 27.7136,265.1188 C27.5456,267.2008 28.2446,269.0328 29.4716,270.6728 C30.1626,271.5988 30.9096,272.4548 31.6826,273.3138 C33.5026,275.3368 35.5186,277.2948 37.9016,278.6268 C43.7956,281.9228 50.4016,283.4038 57.1196,283.6028 C63.6276,283.7978 70.2136,282.8338 76.5146,281.2788 C82.7096,279.7548 88.8236,277.6338 94.5456,274.8098 C100.9126,271.6698 106.7916,267.5798 112.3816,263.2278 C114.2096,261.8058 115.9596,260.2708 117.6196,258.6618 C119.7566,256.5908 121.8736,254.3298 123.4126,251.7708 C124.5416,249.8958 125.3276,248.0478 125.6906,245.8878 C125.9286,244.4778 125.7526,243.0718 125.3896,241.7048 C124.8816,239.7788 124.0576,238.1698 122.3896,236.9858 C121.1316,236.0898 119.6096,235.6148 118.0766,235.6148 C117.6376,235.6148 117.1996,235.6528 116.7646,235.7318" id="Fill-16"></path>
            <path d="M265.1211,41.993 C262.2771,42.501 260.3051,44.083 258.5391,46.22 C256.5391,48.638 256.2151,52.513 256.8011,55.501 C257.1861,57.463 257.3551,59.412 257.4711,61.402 C257.4931,61.837 257.5151,62.272 257.5351,62.708 C257.8441,64.352 258.5311,65.821 259.5901,67.114 C261.2301,69.091 263.6441,70.345 266.1991,70.548 C268.6761,70.747 271.1801,69.954 273.0901,68.368 C274.8751,66.888 276.6091,64.188 276.5231,61.759 C276.4981,61.015 276.4781,60.272 276.4581,59.528 C277.8141,57.457 278.5761,54.579 277.9651,52.149 C277.6481,50.899 277.2891,49.466 276.8051,48.329 C276.4301,47.407 275.9181,46.555 275.2661,45.778 C273.8281,44.032 272.7341,43.501 270.7501,42.509 C269.7691,42.019 268.4141,41.825 267.1351,41.825 C266.4121,41.825 265.7141,41.887 265.1211,41.993" id="Fill-18"></path>
        </g>
    </g>
</svg>